<svg width="61" height="72" viewBox="0 0 61 72" fill="none" xmlns="http://www.w3.org/2000/svg">
<g clip-path="url(#clip0_1_503)">
<path d="M12.4266 62.2276C10.0049 61.989 8.31974 60.824 8.09375 58.3928C7.99053 57.2839 8.4676 56.0318 8.95864 54.9734C9.94629 52.837 9.0507 50.0213 6.93032 49.078C5.02198 48.2358 3.13317 47.3375 1.21088 46.5233C0.0279273 46.0236 -0.301277 45.3555 0.281827 44.1259C2.69981 39.0333 5.08524 33.923 7.43812 28.7949C7.96542 27.6439 8.63499 27.425 9.75098 27.978C11.6649 28.9269 13.6765 29.6821 15.5458 30.7067C17.415 31.7314 19.1727 31.8297 21.1732 31.2823C24.2728 30.4204 27.3808 30.1144 30.3801 31.7595C30.5434 31.8148 30.7166 31.835 30.8882 31.8185C31.0598 31.8021 31.226 31.7494 31.3761 31.664C34.6599 29.7831 38.1139 29.6596 41.4005 31.2879C44.5364 32.8403 47.2901 32.801 50.0801 30.7264C50.7804 30.2042 51.6341 29.8842 52.4069 29.4659C53.3248 28.9634 54.0223 29.1318 54.4129 30.1425C56.5649 35.7066 58.7104 41.2717 60.8494 46.8378C61.2205 47.8091 60.8885 48.4323 59.9343 48.8225C58.0873 49.5777 56.2683 50.4031 54.4185 51.147C53.6931 51.4278 53.3555 51.7815 53.336 52.6574C53.283 54.7517 52.1028 55.8746 49.2905 56.787C48.872 60.2344 48.0797 61.0654 44.4081 61.8402C44.1737 64.3387 42.8317 65.9081 40.3459 66.3572C40.131 69.9085 38.2087 72.0477 35.3964 71.2532C33.3486 70.6749 31.8225 70.6525 29.9169 71.6687C28.1369 72.6148 26.2453 71.4441 24.7499 69.0972C22.3114 69.8159 20.3138 69.1702 18.9942 66.8934C14.8873 68.3055 12.3931 65.8014 12.4266 62.2276ZM28.4996 33.5927C28.4187 33.4888 28.3796 33.3962 28.3127 33.3597C28.1482 33.2754 27.9775 33.2041 27.8021 33.1463C25.7013 32.4641 23.6451 32.9498 21.6335 33.5001C19.1783 34.171 16.8905 34.0138 14.639 32.7842C12.9371 31.8578 11.1321 31.1307 9.25998 30.2576C7.01126 35.0666 4.79602 39.7773 2.56404 44.5919C4.06784 45.2797 5.47117 45.9956 6.93032 46.557C8.97537 47.3599 10.934 48.1965 11.2074 50.8073C14.7506 48.6569 17.2365 49.5497 18.7403 53.3733C21.6251 53.5445 22.1301 53.8617 23.9073 56.6045C26.6304 56.175 27.8719 56.8459 29.2585 59.2181C30.7902 59.6112 32.1015 59.7235 33.1979 60.2737C35.0561 61.2029 36.7579 62.4438 38.5575 63.4909C39.9804 64.3331 41.2191 64.0524 41.8106 62.9295C42.4021 61.8065 41.9194 60.6415 40.5132 59.8414C38.6189 58.7549 36.7077 57.6966 34.8133 56.6101C34.0907 56.1974 33.1561 55.7848 33.8006 54.7152C34.4451 53.6456 35.2291 54.252 35.9684 54.6702C38.3176 55.9934 40.6685 57.3138 43.0214 58.6314C44.7875 59.6224 45.99 59.5241 46.6791 58.3507C47.3989 57.1126 46.8995 56.0571 45.1167 55.038C43.3339 54.0189 41.5706 52.9999 39.7851 51.9977C39.029 51.5737 38.1418 51.1274 38.6691 50.1055C39.2801 48.9489 40.1645 49.617 40.9262 50.0494C43.1916 51.3295 45.4571 52.6125 47.7114 53.9179C48.5902 54.4288 49.4495 54.5692 50.3144 53.9375C51.609 52.9943 51.3607 51.2256 49.7564 50.288C46.6233 48.4604 43.3981 46.7844 40.3431 44.8361C38.2283 43.4886 36.2167 43.4549 33.9987 44.3308C32.0596 45.1 30.1094 45.8636 28.1146 46.4588C24.5407 47.5227 21.5191 46.543 19.1281 43.6514C17.9061 42.1804 17.9814 41.7312 19.6387 40.7458C22.9202 38.8092 25.905 36.4035 28.4996 33.6039V33.5927ZM52.6971 31.9644C52.3623 32.0992 52.1 32.1834 51.8601 32.3097C46.4392 35.1648 46.9832 35.9593 39.9357 33.1154C37.0481 31.9504 34.2777 32.335 31.7388 34.1121C30.6758 34.856 29.7328 35.7712 28.72 36.5881C26.5122 38.3661 24.2998 40.1357 22.0827 41.8968L21.2457 42.5678C23.1819 44.6873 25.4307 45.0158 27.9416 44.1736C30.2238 43.4044 32.4642 42.5116 34.7492 41.7536C35.7397 41.4095 36.7948 41.2952 37.8355 41.4192C38.8761 41.5431 39.8754 41.9022 40.7588 42.4695C44.5336 44.7491 48.3503 46.9613 52.1558 49.1903C52.3372 49.297 52.6134 49.4374 52.7696 49.3728C54.6752 48.5867 56.564 47.7642 58.4919 46.9388L52.6971 31.9644ZM17.1556 65.0911C17.4681 64.8553 18.2241 64.5465 18.5506 63.985C19.5826 62.2736 20.5286 60.5112 21.3852 58.7044C21.879 57.6713 21.6195 56.6775 20.5984 56.0374C20.371 55.8925 20.1167 55.7957 19.8509 55.7529C19.5851 55.71 19.3134 55.7221 19.0524 55.7883C18.7914 55.8545 18.5465 55.9734 18.3327 56.1378C18.1188 56.3023 17.9404 56.5088 17.8084 56.7449C16.7845 58.5107 15.7885 60.3018 14.9376 62.1546C14.3154 63.5302 15.3449 65.049 17.1556 65.0939V65.0911ZM27.3948 60.4843C26.9205 60.0154 26.4183 59.1059 25.7571 58.9711C25.0959 58.8364 23.938 59.2153 23.5251 59.7684C22.5514 61.1019 21.8316 62.6403 21.1174 64.1478C20.9975 64.3892 20.9269 64.6523 20.9097 64.9216C20.8924 65.1909 20.929 65.4609 21.0171 65.7157C21.1053 65.9706 21.2432 66.2051 21.4229 66.4054C21.6025 66.6058 21.8202 66.7679 22.0631 66.8822C23.0592 67.3931 24.1528 67.0815 24.7862 65.9867C25.5534 64.6616 26.2425 63.2944 26.94 61.93C27.125 61.4603 27.2769 60.9782 27.3948 60.4871V60.4843ZM16.7287 54.0274C16.1038 53.2834 15.6937 52.343 15.0827 52.1829C14.3907 52.0005 13.1743 52.2587 12.7893 52.7781C11.7999 54.1178 11.013 55.5974 10.4541 57.1688C10.2337 57.792 10.6326 59.0357 11.1627 59.4147C11.6928 59.7937 13.1771 59.8021 13.484 59.395C14.6892 57.792 15.5932 55.9644 16.7287 54.0189V54.0274ZM33.2928 63.8783C32.6148 63.1316 32.1768 62.2164 31.5407 62.062C30.8488 61.8935 29.663 62.1743 29.2613 62.6993C28.3127 63.9401 27.632 65.4111 26.9763 66.8513C26.5718 67.7412 26.8256 68.7603 27.6989 69.1674C28.349 69.4706 29.6519 69.5941 29.9309 69.2263C31.1668 67.6205 32.1182 65.8126 33.2928 63.8699V63.8783ZM35.3267 64.3837C34.738 65.6385 34.1716 66.8457 33.5885 68.0809C34.6599 68.7743 35.7257 69.6755 37.0007 68.8361C37.279 68.6197 37.5098 68.3475 37.6783 68.0368C37.8469 67.7261 37.9496 67.3836 37.98 67.031C38.0358 65.2989 36.4371 65.0658 35.3267 64.3752V64.3837Z" fill="#BB0B2B"/>
<path d="M27.1353 11.5663C24.3621 7.70336 24.15 3.66921 26.6498 1.38403C28.6726 -0.463208 32.3247 -0.460401 34.3362 1.38403C36.8249 3.67763 36.6045 7.72301 33.7503 11.6729C35.0449 12.0042 36.359 12.2344 37.6005 12.678C40.3905 13.6634 41.4785 15.2888 41.4869 18.2674C41.4869 20.7921 41.4869 23.3188 41.4869 25.8472C41.4869 26.6586 41.4869 27.5681 40.3402 27.5316C39.1936 27.4951 39.2242 26.594 39.2242 25.7855C39.2242 23.2139 39.1601 20.6396 39.241 18.0709C39.2912 16.4651 38.5854 15.4404 37.1792 14.9519C32.8565 13.3922 28.1295 13.3922 23.8068 14.9519C22.4119 15.4488 21.6809 16.4539 21.7339 18.0597C21.812 20.488 21.7534 22.922 21.7534 25.3588C21.7534 25.6872 21.8622 26.0859 21.7144 26.3273C21.3985 26.7693 21.0427 27.181 20.6514 27.5569C20.2664 27.1358 19.5577 26.7147 19.5354 26.2908C19.4573 23.1615 19.4638 20.0304 19.5549 16.8974C19.6079 15.1316 20.7407 13.9244 22.2333 13.2479C23.7873 12.5432 25.4613 12.1249 27.1353 11.5663ZM26.9121 5.98246C27.3641 7.08294 27.6598 8.28729 28.3071 9.26144C29.451 10.9964 31.5853 10.9964 32.6818 9.23336C33.3031 8.20578 33.6776 7.0465 33.7755 5.8477C33.9512 3.56533 32.6343 2.27114 30.4777 2.27676C28.321 2.28237 27.1353 3.57937 26.9065 5.98246H26.9121Z" fill="#BB0B2B"/>
<path d="M23.991 23.0202C23.991 21.9478 23.8822 20.8586 24.0385 19.8086C24.111 19.3005 24.6802 18.8654 25.0233 18.405C25.4307 18.8738 26.1588 19.3258 26.1895 19.8086C26.3123 21.9507 26.3123 24.0982 26.1895 26.2403C26.1644 26.695 25.4753 27.1133 25.0931 27.5485C24.7248 27.1105 24.1166 26.7063 24.0413 26.2262C23.8822 25.1847 23.9938 24.0955 23.991 23.0202Z" fill="#BB0B2B"/>
<path d="M36.9644 23.009C36.9644 24.1319 37.062 25.2549 36.9114 26.3638C36.8528 26.7989 36.239 27.1583 35.8791 27.5541C35.4968 27.1695 34.7994 26.7989 34.7798 26.3975C34.6738 24.1151 34.6738 21.8243 34.7798 19.5447C34.7994 19.1433 35.5247 18.7783 35.9237 18.3965C36.2697 18.8148 36.8556 19.1994 36.917 19.657C37.0648 20.7575 36.9672 21.8889 36.9644 23.009Z" fill="#BB0B2B"/>
</g>
<defs>
<clipPath id="clip0_1_503">
<rect width="61" height="72" fill="white"/>
</clipPath>
</defs>
</svg>
