<svg width="86" height="54" viewBox="0 0 86 54" fill="none" xmlns="http://www.w3.org/2000/svg">
<g clip-path="url(#clip0_1_475)">
<path d="M14.8097 36.7707C16.5228 37.5931 17.4969 38.4795 17.6481 40.5556C17.8429 43.2721 19.9087 44.7787 22.5354 45.4292C23.0661 45.5572 23.7111 45.8235 23.9999 46.238C25.4678 48.3614 27.4899 49.2478 29.9957 49.3759C30.6417 49.4458 31.2395 49.7517 31.6752 50.2353C33.3816 52.2575 35.3701 53.427 38.1244 52.9552C38.5017 52.8624 38.8978 52.8835 39.2631 53.0159C43.0756 54.9639 46.5857 53.7742 49.6525 51.5531C56.8575 46.3324 64.0961 41.1286 70.2162 34.5564C70.5117 34.2429 70.8544 33.9733 71.3481 33.5284C71.7243 35.7528 73.1284 36.0899 74.9355 36.0258C77.7873 35.9281 80.6458 36.0258 83.4976 35.9921C85.3987 35.9921 85.9799 35.3653 85.9832 33.4475C85.9832 23.1117 85.9832 12.7759 85.9832 2.44015C85.9832 0.593187 85.345 -0.185365 83.6319 0.0303381C78.8151 0.633634 74.0151 1.37848 69.2118 2.10648C68.5568 2.24938 67.9201 2.46648 67.314 2.75359C64.8216 3.7647 64.5092 4.22644 64.5126 6.98003C64.1036 7.05047 63.6909 7.09662 63.2765 7.11822C60.8144 7.11822 58.3489 7.04744 55.8867 7.14518C52.7326 7.27325 49.8406 7.00363 47.019 5.12296C43.8246 2.99626 40.1533 3.52203 36.6901 4.89714C33.227 6.27225 29.7673 7.74173 26.3076 9.16403C25.9717 9.30895 25.5854 9.41007 25.058 9.5887C25.1722 7.8597 24.0503 7.29347 22.794 6.84184C16.0761 4.459 9.11628 3.60629 2.02547 3.62314C0.634857 3.62314 0.0100861 4.35788 0.0100861 5.72962C0.0100861 16.2901 0.0100861 26.8506 0.0100861 37.4111C0.0100861 38.7862 0.661705 39.5142 2.04224 39.5209C5.45497 39.5209 8.87109 39.4838 12.2838 39.5209C14.1279 39.5614 14.2689 38.0649 14.8097 36.7707ZM26.9021 43.7743C29.8949 40.832 32.9281 37.8458 35.9713 34.8563C36.408 34.4249 37.0529 34.0137 37.1739 33.4913C37.3519 32.733 37.4459 31.5567 37.0193 31.159C36.5927 30.7613 35.4473 30.9332 34.668 31.0916C34.2582 31.1725 33.9492 31.7657 33.5965 32.1027C30.6384 35.0889 27.6802 38.0773 24.7221 41.0679C23.9361 41.8667 23.1165 42.0116 22.176 41.3847C21.7327 41.1277 21.3993 40.7159 21.2394 40.2278C21.0795 39.7398 21.1045 39.2098 21.3094 38.739C21.5303 38.1625 21.856 37.6322 22.2701 37.1751C23.2718 35.9676 24.3536 34.8292 25.5081 33.7677C30.6541 29.3593 35.8538 25.0047 41.0468 20.6603C41.3155 20.4345 41.8227 20.1649 42.0545 20.2728C43.5862 20.9906 45.316 21.54 46.5252 22.632C49.3938 25.2407 52.4707 26.3394 56.2025 25.0081C58.5 24.1959 59.8302 22.2478 59.2625 19.8919C58.7755 17.8697 57.8417 15.9182 56.9112 14.0308C56.3637 12.9152 55.4501 11.9817 54.6305 10.8661H65.087C66.7161 16.8822 68.3284 22.7567 69.8634 28.6549C69.8952 28.9362 69.8683 29.2211 69.7845 29.4915C69.7006 29.7619 69.5617 30.0118 69.3764 30.2254C62.9372 37.4212 55.1847 43.0598 47.4389 48.6917C46.1423 49.632 44.3789 49.9286 42.8337 50.5218L42.565 49.9657C42.9378 49.5713 43.304 49.1736 43.6836 48.786L48.9672 43.3699C49.1621 43.1676 49.3602 42.9688 49.5416 42.7565C50.2839 41.8768 50.4888 40.9264 49.6222 40.0602C48.7556 39.194 47.8017 39.3861 46.9753 40.2253C44.2882 42.9216 41.6547 45.6887 38.9138 48.3344C37.0496 50.1342 35.5548 49.7432 34.2818 47.0436C36.8178 44.5866 39.4378 42.0588 42.0477 39.5175C42.9748 38.6177 43.6029 37.5526 42.4609 36.4842C41.3188 35.4158 40.3582 36.0562 39.4378 37.01C36.9018 39.6288 34.3657 42.2442 31.7424 44.7618C30.0528 46.3729 28.2625 46.0021 26.8853 43.7743H26.9021ZM18.7162 34.8597C18.3903 34.6215 18.0455 34.4107 17.685 34.2294C16.2037 33.5554 15.9485 32.6083 16.5564 31.0343C18.5214 25.9788 20.2748 20.8356 22.2298 15.7699C22.613 14.9511 23.2771 14.2979 24.1007 13.9297C27.4294 12.4906 30.859 11.2874 34.1776 9.85495C41.3524 6.77444 43.7709 5.18026 51.7585 13.3433C51.9323 13.4854 52.0879 13.6484 52.2221 13.8286C53.3305 15.6891 54.5734 17.4855 55.4803 19.447C56.1991 21.0243 55.6247 21.6647 53.8882 21.9074C51.5671 22.2444 49.9313 21.1524 48.544 19.4268C48.1276 18.8474 47.5795 18.376 46.9451 18.0517C45.4605 17.4349 43.8717 17.0675 42.3836 16.4642C41.2248 15.9958 40.3918 16.2384 39.5184 17.0776C38.1748 18.355 36.7708 19.5481 35.36 20.7446C29.9017 25.3789 24.4366 29.9996 18.6995 34.8597H18.7162ZM20.6645 9.93584C20.2244 10.9975 19.8247 11.8536 19.5056 12.74C16.9024 19.9492 14.3261 27.1652 11.696 34.3643C11.481 34.9574 10.9536 35.854 10.5237 35.8843C8.3101 36.036 6.07978 35.9551 3.76208 35.9551V7.28674C9.49162 7.31268 15.1843 8.20693 20.6476 9.93921L20.6645 9.93584ZM82.2816 32.3454C79.9706 32.3454 77.8478 32.3892 75.7316 32.3083C75.3252 32.3083 74.6735 31.8634 74.5795 31.5096C72.4611 23.4499 70.393 15.3779 68.3754 7.29347C68.2847 6.91936 68.755 6.05318 69.0808 5.98577C73.4139 5.07915 77.7705 4.277 82.2816 3.41418V32.3454Z" fill="#BB0B2B"/>
</g>
<rect x="-0.5" y="0.5" width="85" height="53" transform="matrix(-1 0 0 1 85 0)"/>
<defs>
<clipPath id="clip0_1_475">
<rect width="86" height="54" transform="matrix(-1 0 0 1 86 0)" fill="white"/>
</clipPath>
</defs>
</svg>
