<svg width="68" height="72" viewBox="0 0 68 72" fill="none" xmlns="http://www.w3.org/2000/svg">
<g clip-path="url(#clip0_1_491)">
<path d="M7.37426 2.40216C7.71388 1.49536 7.05971 0.0309758 8.55183 0.014079C10.044 -0.00281776 9.54564 1.42215 9.7934 2.374H17.6187C18.0864 1.56858 17.2289 -0.0506928 18.8909 -2.48593e-06C20.4025 0.0478717 19.662 1.54042 20.1102 2.39089H27.9048C28.3725 1.54605 27.5596 0.0478717 29.0851 -2.48593e-06C30.7276 -0.0506928 29.9203 1.56014 30.4047 2.40497H38.127C38.6169 1.59393 37.8736 -0.0732191 39.4521 0.0732196C39.981 0.12391 40.4069 1.33203 41.1224 2.35147H48.4549C48.9421 1.62772 48.1403 -0.0168969 49.7299 0.0112644C51.2108 0.0394257 50.5483 1.52071 50.9019 2.34302C51.6674 2.5148 52.4496 2.62463 53.1846 2.86119C56.3024 3.90879 58.2483 6.73618 58.2594 10.3155C58.2836 18.7639 58.278 27.2123 58.2428 35.6607C58.2428 36.7871 58.5824 37.4038 59.5233 38.0009C62.6816 40.0171 65.1491 42.9688 66.5902 46.4542C68.0312 49.9396 68.3757 53.7895 67.5768 57.48C65.8787 65.1117 59.849 70.8172 52.2659 71.8198C45.1171 72.766 39.3574 70.1836 34.9896 64.4528C34.3382 63.6079 33.7146 63.3263 32.7097 63.3263C24.5448 63.3629 16.3827 63.3517 8.21218 63.346C3.0705 63.346 0.00553039 60.2483 0.00274658 55.0413C0.00274658 40.2622 0.00274658 25.4822 0.00274658 10.7013C0.00553039 5.92795 2.58611 3.00481 7.37426 2.40216ZM2.24651 12.1403C2.22146 12.5121 2.18249 12.7852 2.18249 13.0584C2.18249 27.1841 2.18249 41.3108 2.18249 55.4383C2.18249 58.9472 4.38447 61.0903 7.87814 61.0959C15.3462 61.111 22.8151 61.111 30.285 61.0959H32.9296C30.2126 53.6247 31.0116 46.7731 36.3481 40.9634C41.7236 35.1115 48.4855 33.8809 56.0296 36.0859V12.1403H2.24651ZM64.3699 46.4971L64.0024 46.9364C63.1283 46.9364 61.7754 47.2941 61.4664 46.8717C60.3529 45.3425 62.4546 45.2299 63.0448 44.1428L58.8691 40.0144C57.9477 40.8592 57.7751 42.5489 56.4333 41.7942C54.9718 40.9719 56.5112 39.9412 56.6365 38.6964L51.0383 37.2208C50.4815 38.3754 51.2804 39.8651 49.7744 39.9327C48.0011 40.0144 48.9588 38.2853 48.2489 37.2011L42.6813 38.7499C42.9819 39.9778 44.3098 40.9578 42.9847 41.766C41.5677 42.6278 41.4453 40.7719 40.4208 40.0341L36.2702 44.2977C37.2389 45.1651 38.8229 45.4242 38.0546 46.7478C37.2195 48.184 36.2228 46.6238 35.0202 46.4887L33.517 52.2505L34.1183 52.0055C34.8254 52.4955 36.0836 52.932 36.1338 53.4839C36.298 55.244 34.5442 54.2584 33.5281 54.9511C34.0097 56.776 34.5136 58.6797 35.0035 60.5412C36.2367 60.482 37.2528 58.8684 38.0657 60.3525C38.8452 61.7606 37.0218 61.8929 36.1588 63.0616L40.3039 67.2548C41.4536 66.3677 41.526 64.4894 42.968 65.3286C44.41 66.1678 42.8288 67.1731 42.762 68.3813L48.3519 69.9245C48.9086 68.829 48.0735 67.1309 49.702 67.1337C51.3305 67.1365 50.4648 68.8431 51.0494 69.9499L56.6755 68.3475C56.4333 67.0915 55.0441 66.1115 56.4472 65.3286C57.892 64.5175 57.9365 66.4043 58.9526 67.0802L63.0893 62.8222C62.2096 61.9154 60.5617 61.769 61.3022 60.3835C62.1122 58.8684 63.1255 60.4989 64.381 60.5355C64.871 58.6684 65.3749 56.7478 65.8648 54.9033C64.7513 54.3569 63.1701 55.2271 63.1979 53.5403C63.2257 51.9435 64.768 52.7123 65.862 52.1801L64.3699 46.4971ZM50.8907 4.78742C50.5678 5.63226 51.1691 6.99526 49.7187 7.01779C48.1542 7.04032 48.9142 5.50553 48.441 4.7846H40.6463C40.3095 5.68013 40.8801 7.03751 39.4242 7.03751C37.8792 7.03751 38.6531 5.50554 38.1464 4.71983H30.4242C29.9509 5.51962 30.619 7.13607 29.0907 6.9136C28.534 6.83193 28.1331 5.66042 27.4956 4.75363H20.0629L20.3691 5.10283L18.8408 7.00935L17.1231 4.75644H10.3334C9.618 5.71674 9.19489 6.86009 8.62143 6.94458C7.05971 7.16705 7.75008 5.58157 7.3854 4.82403C4.67676 4.61 2.28548 6.92205 2.3161 9.75789H55.9572C55.9614 9.09092 55.8321 8.42999 55.577 7.81496C55.3219 7.19993 54.9463 6.64354 54.4728 6.17934C53.9994 5.71513 53.4379 5.35274 52.8223 5.114C52.2066 4.87526 51.5496 4.76513 50.8907 4.79024V4.78742Z" fill="#BB0B2B"/>
<path d="M29.0017 27.2742C27.5207 27.2742 26.0369 27.2432 24.5476 27.2742C23.4341 27.308 22.894 26.8434 22.8968 25.7197C22.8968 23.0913 22.8968 20.4686 22.8968 17.8515C22.8968 16.725 23.4341 16.2688 24.5365 16.28C27.5931 16.3101 30.6488 16.3101 33.7035 16.28C34.8922 16.28 35.3738 16.8038 35.3571 17.9697C35.3293 20.5042 35.3237 23.0388 35.3571 25.5564C35.3738 26.8377 34.8004 27.308 33.5727 27.2658C32.0583 27.2348 30.53 27.2742 29.0017 27.2742ZM33.0438 24.9678V18.6118H25.1768V24.9678H33.0438Z" fill="#BB0B2B"/>
<path d="M45.5375 27.2742C44.0064 27.2742 42.4753 27.2489 40.9442 27.2742C39.8863 27.2996 39.3992 26.8096 39.3992 25.7648C39.3992 23.0932 39.3992 20.4198 39.3992 17.7444C39.3992 16.7757 39.8557 16.2829 40.8523 16.2857C44.0073 16.3026 47.1623 16.3026 50.3172 16.2857C51.3834 16.2857 51.8038 16.8236 51.7955 17.8599C51.7788 20.4883 51.7788 23.1167 51.7955 25.7451C51.7955 26.8067 51.3139 27.2855 50.2672 27.2686C48.6915 27.2573 47.127 27.2742 45.5375 27.2742ZM41.6401 18.578V24.9453H49.4738V18.578H41.6401Z" fill="#BB0B2B"/>
<path d="M12.6719 56.8915C11.1408 56.8915 9.60968 56.8577 8.08138 56.8915C6.96785 56.9253 6.44451 56.4747 6.45286 55.3341C6.46956 52.7095 6.45286 50.0821 6.45286 47.449C6.45286 46.469 6.9289 45.9564 7.8921 45.9536C11.0898 45.9536 14.2883 45.9536 17.4879 45.9536C18.4594 45.9536 18.9076 46.4999 18.9076 47.4715C18.9076 50.0999 18.9076 52.7283 18.9076 55.3567C18.9076 56.3902 18.4789 56.914 17.3988 56.8886C15.8259 56.8633 14.2475 56.8915 12.6719 56.8915ZM8.73556 54.6132H16.6137V48.2403H8.73556V54.6132Z" fill="#BB0B2B"/>
<path d="M12.6078 42.0842C11.1241 42.0842 9.64031 42.0617 8.15376 42.0842C7.0124 42.1068 6.42779 41.6506 6.44171 40.4312C6.47233 37.8516 6.45563 35.272 6.44171 32.6953C6.44171 31.6646 6.86764 31.1408 7.94497 31.1492C11.1 31.1755 14.2549 31.1755 17.4099 31.1492C18.4928 31.1492 18.9076 31.6786 18.9076 32.7009C18.9076 35.2805 18.8853 37.8601 18.9076 40.4368C18.9076 41.659 18.3286 42.1068 17.1872 42.0842C15.67 42.0617 14.1389 42.0842 12.6078 42.0842ZM8.71052 39.8173H16.6221V33.5007H8.71052V39.8173Z" fill="#BB0B2B"/>
<path d="M29.0852 42.0843C27.5541 42.0843 26.023 42.0674 24.4975 42.0843C23.384 42.0843 22.894 41.5717 22.9024 40.4565C22.9191 37.8807 22.9191 35.3021 22.9024 32.7206C22.9024 31.5942 23.4007 31.1323 24.5226 31.1464C27.5792 31.1858 30.6414 31.1858 33.7091 31.1464C34.8978 31.1323 35.3794 31.6308 35.3794 32.822C35.3497 35.3546 35.3497 37.8892 35.3794 40.4256C35.3961 41.6449 34.8226 42.1152 33.6841 42.0927C32.1446 42.0674 30.6135 42.0843 29.0852 42.0843ZM25.1684 39.7919H33.0299V33.4979H25.1684V39.7919Z" fill="#BB0B2B"/>
<path d="M25.1711 48.1586V54.7399C26.2039 54.7399 27.1838 54.616 28.1108 54.7878C28.6119 54.8807 29.0211 55.4806 29.4721 55.8523C29.0072 56.1987 28.5729 56.7844 28.0802 56.8436C26.847 56.9872 25.5748 56.8689 24.336 56.8971C23.3116 56.9224 22.9163 56.3761 22.9163 55.4271C22.9163 52.7574 22.9163 50.0877 22.9163 47.418C22.9163 46.4352 23.4424 45.9677 24.3972 45.9677C25.8782 45.9677 27.3675 45.8804 28.8513 46.0212C29.319 46.0663 30.015 46.652 30.1096 47.0998C30.285 47.9136 29.589 48.1671 28.8513 48.1615C27.6404 48.153 26.4489 48.1586 25.1711 48.1586Z" fill="#BB0B2B"/>
<path d="M41.6874 33.388C41.5928 33.7823 41.6095 34.2554 41.4258 34.3568C40.9402 34.5705 40.4335 34.731 39.9141 34.8355C39.7638 33.909 39.4882 32.9769 39.5328 32.0616C39.5495 31.7434 40.3679 31.2168 40.8189 31.2168C43.959 31.1408 47.1047 31.183 50.2476 31.1689C51.0187 31.1689 51.7286 31.3351 51.7481 32.225C51.7676 33.2134 50.9853 33.388 50.1864 33.3909C47.8758 33.3909 45.5625 33.3909 43.2519 33.3909L41.6874 33.388Z" fill="#BB0B2B"/>
<path d="M48.6219 51.6337C48.6219 49.4625 48.6219 47.6039 48.6219 45.7452C48.6219 44.9004 48.6525 44.0161 49.7605 44.0555C50.771 44.095 50.771 44.9511 50.771 45.7311C50.771 48.1615 50.7877 50.5946 50.771 53.0249C50.7562 54.6264 50.0547 55.0281 48.6665 54.2302C46.5369 53.008 44.4379 51.7379 42.311 50.5157C41.629 50.1243 41.1363 49.623 41.5455 48.8401C42.0187 47.9362 42.7453 48.229 43.4413 48.6346C45.0642 49.5921 46.7095 50.5298 48.6219 51.6337Z" fill="#BB0B2B"/>
</g>
<defs>
<clipPath id="clip0_1_491">
<rect width="68" height="72" fill="white"/>
</clipPath>
</defs>
</svg>
