<svg width="71" height="71" viewBox="0 0 71 71" fill="none" xmlns="http://www.w3.org/2000/svg">
<g clip-path="url(#clip0_1_481)">
<path d="M12.8611 59.2122C12.2999 58.266 12.0126 57.4097 11.4347 56.8533C4.19907 49.8566 5.7157 51.3159 2.84951 41.7737C1.94088 38.7518 1.11908 35.7032 0.283947 32.6613C-0.597958 29.4595 0.65808 26.331 3.0733 25.6846C5.2981 25.0782 8.25451 27.1572 9.14977 30.0426C10.0016 32.7846 10.7666 35.5566 11.5249 38.1721C17.3308 37.8622 21.4497 41.2773 25.3447 44.5024C29.9547 48.3273 28.3512 54.1113 28.6619 59.1622C31.8387 59.8086 31.8387 59.8086 31.8387 63.0571C31.8387 65.0561 31.8053 67.0552 31.8387 69.0542C31.8688 70.4136 31.2107 70.99 29.9246 70.99H11.2176C9.88133 70.99 9.32014 70.3736 9.35689 69.0309C9.41368 66.9252 9.35689 64.8129 9.35689 62.7006C9.39029 59.6287 9.39029 59.6287 12.8611 59.2122ZM25.8124 59.2955C25.8124 56.5601 25.9561 54.0013 25.7757 51.4658C25.7164 50.2078 25.3508 48.9831 24.7106 47.8976C24.0703 46.8121 23.1747 45.8984 22.1011 45.2354C19.7627 43.7595 17.2907 42.4667 14.8688 41.1107C13.7163 40.4643 12.7509 40.8408 12.1964 41.9236C11.6986 42.9232 11.9191 43.8161 13.0515 44.4225C14.8621 45.3887 16.6059 46.4782 18.3964 47.481C19.2783 47.9708 19.8996 48.6272 19.3685 49.61C18.7605 50.7395 17.8452 50.3797 16.9499 49.8433C15.2351 48.8171 13.5058 47.8175 11.7621 46.8447C9.57066 45.6186 8.93262 44.3092 9.30343 41.777C9.37564 41.3462 9.35858 40.9051 9.25331 40.481C8.37809 37.3358 7.48952 34.1939 6.55751 31.0621C6.07981 29.4562 4.51644 28.0335 3.72473 28.5199C2.32504 29.3795 2.60565 30.7722 2.97645 32.0916C4.25922 36.6761 5.6088 41.244 6.81473 45.8485C7.41463 48.2179 8.68288 50.3662 10.4693 52.0389C12.6273 54.1113 15.3431 55.8671 15.4266 59.3055L25.8124 59.2955ZM12.203 68.0747H29.016V62.2108H12.2164L12.203 68.0747Z" fill="#BB0B2B"/>
<path d="M58.199 59.2988C59.0943 59.3555 59.5353 59.4088 59.9662 59.4054C61.0586 59.4054 61.6365 59.8852 61.6365 61.0014C61.6365 63.7767 61.6198 66.5521 61.6365 69.3308C61.6365 70.4636 61.0485 70.9967 60.0029 70.9967C53.6025 71.0144 47.2009 71.0144 40.7981 70.9967C39.7592 70.9967 39.1779 70.4036 39.1846 69.2975C39.1846 66.5754 39.1846 63.8567 39.1846 61.1346C39.1846 59.9585 39.7459 59.4021 40.9251 59.4254C41.3594 59.4254 41.7936 59.3755 42.425 59.3321C42.425 57.2298 42.455 55.1874 42.425 53.1484C42.3314 47.9741 44.583 44.2292 49.213 41.8737C50.7463 41.094 52.2194 40.2078 53.716 39.3449C56.1713 37.9389 56.6524 37.8522 59.4217 38.4719C60.1934 35.8065 60.8114 33.0511 61.8102 30.4457C62.358 29.023 63.3034 27.5237 64.4826 26.6242C67.2553 24.5285 70.3119 25.8978 70.8931 29.3529C71.0638 30.4446 71.0058 31.5598 70.7227 32.628C69.3631 37.709 68.0336 42.8066 66.38 47.7976C65.7487 49.7266 64.4592 51.4991 63.2132 53.1517C62.1543 54.5577 60.6777 55.6405 59.4918 56.9633C58.9807 57.5463 58.7101 58.3593 58.199 59.2988ZM55.707 59.2988C55.6001 56.7267 57.1668 55.2174 58.7603 53.7114C59.6489 52.8718 60.6176 52.0822 61.3325 51.1093C62.2712 49.8399 63.2934 48.5072 63.751 47.0379C65.3044 42.0769 66.6373 37.0426 68.0236 32.045C68.2122 31.41 68.2847 30.7464 68.2374 30.0859C68.0737 28.3967 67.0081 27.9136 65.7821 29.043C65.1157 29.6894 64.6209 30.4908 64.3423 31.3753C63.4671 34.1106 62.672 36.8827 61.9672 39.668C61.7934 40.516 61.745 41.3848 61.8235 42.2468C61.897 44.036 61.4494 45.5386 59.8192 46.4915C57.8516 47.6343 55.874 48.7604 53.9131 49.9132C53.1047 50.3863 52.2428 50.5796 51.7217 49.6733C51.2006 48.7671 51.6315 48.0075 52.5435 47.501C54.2839 46.5215 55.9609 45.422 57.738 44.5224C58.9941 43.8861 59.4083 42.9931 58.787 41.857C58.1656 40.7209 57.1167 40.5243 55.9442 41.1907C53.7327 42.4667 51.4912 43.6862 49.2831 44.9622C47.4692 46.0084 46.0127 47.5777 45.7054 49.5667C45.2177 52.7452 45.2244 55.997 45.0173 59.2922L55.707 59.2988ZM42.0108 68.0247H58.7769V62.2441H42.0108V68.0247Z" fill="#BB0B2B"/>
<path d="M6.42386 14.1167C6.42294 12.2553 6.79129 10.4121 7.5077 8.69334C8.22412 6.97455 9.27442 5.41413 10.5981 4.10196C11.9218 2.78978 13.4928 1.7518 15.2204 1.0478C16.9481 0.343795 18.7984 -0.0123075 20.6646 -5.53497e-07C24.4378 0.0255485 28.0468 1.54253 30.7001 4.21825C33.3535 6.89397 34.8345 10.51 34.8185 14.2733C34.7818 22.043 28.2878 28.4733 20.511 28.4333C12.7342 28.3933 6.40716 21.9863 6.42386 14.1167ZM20.6212 2.78869C19.1172 2.78387 17.6271 3.07465 16.2359 3.64443C14.8446 4.2142 13.5796 5.0518 12.5131 6.10936C11.4465 7.16692 10.5993 8.42372 10.02 9.80794C9.44058 11.1922 9.14033 12.6767 9.13638 14.1767C9.1415 17.2079 10.3445 20.1148 12.4844 22.2672C14.6243 24.4196 17.5287 25.6439 20.5677 25.6746C26.8146 25.7079 32.0225 20.527 32.0626 14.23C32.0661 11.1988 30.8631 8.29007 28.7178 6.14292C26.5725 3.99577 23.6604 2.78576 20.6212 2.77869V2.78869Z" fill="#BB0B2B"/>
<path d="M50.4289 -9.33067e-07C52.2965 -0.00356108 54.1462 0.361794 55.8714 1.07497C57.5967 1.78816 59.1632 2.83504 60.4807 4.15522C61.7981 5.4754 62.8404 7.04273 63.5473 8.76677C64.2543 10.4908 64.6119 12.3374 64.5995 14.2C64.604 17.9607 63.1143 21.57 60.4565 24.2376C57.7987 26.9053 54.1894 28.4139 50.4189 28.4333C42.6454 28.4333 36.1982 21.973 36.1982 14.19C36.2044 10.4279 37.7058 6.82169 40.3733 4.16179C43.0408 1.50189 46.6569 0.0052853 50.4289 -9.33067e-07ZM50.4523 2.77869C47.4149 2.77072 44.4984 3.96563 42.3437 6.10091C40.189 8.2362 38.9723 11.1372 38.9608 14.1667C38.972 17.1966 40.1774 20.1006 42.3167 22.2518C44.4561 24.403 47.3578 25.6288 50.3955 25.6646C53.4332 25.6489 56.3424 24.4405 58.4932 22.3009C60.644 20.1614 61.8633 17.263 61.887 14.2333C61.8914 12.732 61.599 11.2446 61.0265 9.85619C60.454 8.46773 59.6127 7.20546 58.5507 6.14158C57.4887 5.0777 56.2267 4.23309 54.8371 3.65605C53.4475 3.07902 51.9575 2.78088 50.4523 2.77869Z" fill="#BB0B2B"/>
<path d="M17.9688 17.3152L26.0796 9.25232C26.3936 8.93914 26.6676 8.45936 27.0417 8.35608C27.6463 8.19282 28.3211 8.27611 28.9659 8.25612C28.9659 8.90248 29.2732 9.81872 28.9659 10.1486C25.7367 13.5203 22.434 16.8199 19.0578 20.0473C18.7237 20.3804 17.4777 20.2938 17.0535 19.934C15.3788 18.4759 13.8062 16.9052 12.3466 15.2328C11.9925 14.8264 12.2331 13.9001 12.203 13.2138C12.8711 13.2704 13.7998 13.0639 14.2073 13.4237C15.5402 14.5665 16.6794 15.9425 17.9688 17.3152Z" fill="#BB0B2B"/>
<path d="M50.4824 12.3442L54.2104 8.45936C54.8785 7.74303 55.7003 7.32323 56.5154 8.14618C57.3305 8.96912 56.8494 9.75875 56.1379 10.4284L52.2261 14.14L55.9776 17.7717C56.7359 18.508 57.4675 19.3343 56.4653 20.3071C55.5333 21.2167 54.7482 20.507 54.0601 19.7907L50.469 16.0058C49.086 17.4185 47.8533 18.6712 46.634 19.9306C45.9659 20.637 45.1943 21.1134 44.3458 20.2638C43.4973 19.4142 43.985 18.6479 44.6798 17.9882C45.9392 16.8121 47.2086 15.656 48.7252 14.2466C47.2186 12.8206 45.9325 11.6112 44.6598 10.3885C43.9683 9.72211 43.4371 8.94913 44.3257 8.10953C45.1542 7.32656 45.9392 7.71304 46.6374 8.4427C47.8467 9.68212 49.0593 10.9016 50.4824 12.3442Z" fill="#BB0B2B"/>
</g>
<defs>
<clipPath id="clip0_1_481">
<rect width="71" height="71" fill="white"/>
</clipPath>
</defs>
</svg>
