<svg width="73" height="72" viewBox="0 0 73 72" fill="none" xmlns="http://www.w3.org/2000/svg">
<path d="M0.00100678 55.8953C0.00100678 54.1133 0.00100678 52.3293 0.00100678 50.5473C0.00100678 49.5405 0.510439 48.9686 1.52729 49.019C4.40266 49.164 6.9317 48.2639 9.31777 46.7215C11.6112 45.2355 13.9792 43.8663 16.3028 42.4266C17.7636 41.5393 19.4273 41.0409 21.1354 40.9788C25.4444 40.7432 29.7494 40.4271 34.0584 40.1472C35.6109 40.0445 37.1633 39.9358 38.7178 39.8673C39.2884 39.8323 39.8519 40.0083 40.3011 40.3617C40.7504 40.7152 41.054 41.2215 41.1542 41.7842C41.3455 43.1011 40.6488 44.2247 39.342 44.4764C36.3203 45.0563 33.2892 45.5932 30.2488 46.0872C27.9614 46.4618 27.0955 47.2591 26.6727 49.5667C26.5096 50.4526 26.3223 51.3346 26.1431 52.2185C25.8028 53.8979 26.5841 55.4503 28.1788 56.0443C32.1355 57.5343 36.1082 58.9801 40.0729 60.452C40.971 60.7842 41.8388 60.6534 42.7188 60.3674C50.9046 57.6652 59.0964 54.961 67.2943 52.2548C67.7232 52.1138 68.1481 51.9689 68.579 51.8339C69.9885 51.393 71.2369 51.9004 71.8007 53.1307C72.3886 54.4093 71.9396 55.8289 70.6509 56.5537C68.7501 57.6189 66.8252 58.6418 64.9062 59.6808C58.0776 63.3777 51.2496 67.0773 44.4222 70.7796C42.1288 72.032 39.779 72.3038 37.2399 71.6716C25.3424 68.7036 13.4375 65.7611 1.52528 62.8441C0.246663 62.53 0.00100678 62.2401 0.00100678 60.9413C-0.000335594 59.262 -0.000335594 57.58 0.00100678 55.8953Z" fill="#BB0B2B"/>
<path d="M51.3368 38.5907C48.4997 38.5907 45.6606 38.6048 42.8235 38.5746C42.4108 38.569 42.0089 38.4423 41.6677 38.2102C40.3629 37.2557 38.893 37.3 37.407 37.4047C32.3234 37.7363 27.2405 38.0719 22.1583 38.4115C21.675 38.4458 21.4757 38.327 21.3528 37.8195C19.3017 29.9237 17.2438 22.0319 15.1793 14.144C15.1309 13.9628 15.2175 13.7413 15.2417 13.54C15.443 13.6205 15.7048 13.6487 15.8457 13.7917C18.6084 16.5315 21.3602 19.2833 24.1014 22.0473C26.6606 24.6025 29.9246 24.1837 31.765 21.0627C34.3155 16.7429 36.8553 12.4204 39.3843 8.09531C39.6239 7.69259 39.8233 7.46707 40.377 7.61608C40.8887 7.74363 41.4238 7.74363 41.9355 7.61608C42.4751 7.47916 42.6926 7.65635 42.9423 8.0792C45.5089 12.4741 48.0863 16.863 50.6744 21.2459C52.1765 23.785 55.1264 24.4676 57.3775 22.8064C57.6744 22.5758 57.9537 22.3234 58.2131 22.0513C60.9503 19.3182 63.6874 16.5858 66.4245 13.8541C66.5876 13.693 66.8594 13.6387 67.0789 13.5339C67.097 13.7836 67.1836 14.0514 67.1252 14.281C65.0854 22.1339 63.0215 29.9687 60.9979 37.8175C60.8288 38.476 60.5388 38.6109 59.9247 38.6048C57.0614 38.5746 54.1981 38.5907 51.3368 38.5907Z" fill="#BB0B2B"/>
<path d="M60.4422 41.2023C60.4422 42.1205 60.4704 42.9944 60.4321 43.8683C60.4039 44.5348 59.8965 44.9898 59.1938 45.0442C58.8454 45.0704 58.491 45.0442 58.1407 45.0442H43.1134C43.3692 43.7978 43.6188 42.5413 43.8887 41.2023H60.4422Z" fill="#BB0B2B"/>
<path d="M61.31 47.1544C61.2577 47.235 61.1288 47.4383 60.9878 47.6336C60.2448 48.6747 59.4052 49.6613 58.7729 50.7647C57.8286 52.4098 56.4795 53.2958 54.6632 53.8052C51.7999 54.6107 48.9991 55.6275 46.17 56.5558C46.0069 56.6081 45.8418 56.6484 45.5176 56.739C45.7371 56.4833 45.8458 56.3363 45.9727 56.2155C48.7917 53.4831 51.5825 50.7486 54.4115 48.0404C54.7017 47.7877 55.0666 47.637 55.4505 47.6115C56.5016 47.5551 57.5628 47.6477 58.6118 47.5753C59.5159 47.5108 60.4099 47.2994 61.31 47.1544Z" fill="#BB0B2B"/>
<path d="M41.1905 5.14744C40.8514 5.15632 40.514 5.09714 40.1982 4.97337C39.8824 4.8496 39.5947 4.66376 39.3519 4.42685C39.1092 4.18994 38.9164 3.90676 38.785 3.59407C38.6536 3.28137 38.5863 2.9455 38.5869 2.60632C38.5813 2.26752 38.643 1.93097 38.7683 1.61614C38.8936 1.30131 39.0801 1.01444 39.3169 0.77214C39.5538 0.529838 39.8364 0.336901 40.1483 0.204498C40.4602 0.0720949 40.7953 0.0028529 41.1341 0.000769663C41.4734 -0.0075936 41.811 0.0522733 42.1267 0.176809C42.4424 0.301345 42.73 0.488017 42.9722 0.725758C43.2145 0.9635 43.4065 1.24746 43.537 1.56081C43.6674 1.87417 43.7336 2.21054 43.7316 2.54995C43.7422 2.88917 43.6841 3.22702 43.5609 3.54324C43.4377 3.85946 43.2518 4.14752 43.0145 4.39012C42.7771 4.63271 42.4932 4.82485 42.1798 4.95499C41.8663 5.08513 41.5298 5.15059 41.1905 5.14744Z" fill="#BB0B2B"/>
<path d="M12.7791 11.5969C12.0977 11.5666 11.4548 11.2726 10.9862 10.777C10.5177 10.2814 10.2602 9.623 10.2682 8.94101C10.2924 8.25878 10.5841 7.61349 11.0804 7.14473C11.5767 6.67596 12.2375 6.42142 12.92 6.43613C13.6037 6.44988 14.2544 6.73223 14.7315 7.2221C15.2086 7.71198 15.4736 8.36999 15.4692 9.05377C15.4596 9.39739 15.3823 9.73574 15.2419 10.0495C15.1015 10.3633 14.9007 10.6463 14.6509 10.8825C14.4011 11.1186 14.1072 11.3033 13.786 11.4258C13.4649 11.5484 13.1227 11.6066 12.7791 11.5969Z" fill="#BB0B2B"/>
<path d="M66.8936 9.03161C66.8844 8.69226 66.9437 8.35454 67.068 8.03863C67.1923 7.72272 67.379 7.43512 67.6169 7.19302C67.8549 6.95091 68.1392 6.75928 68.453 6.62958C68.7667 6.49987 69.1033 6.43477 69.4428 6.43814C69.7822 6.43143 70.1195 6.49262 70.4349 6.61812C70.7503 6.74363 71.0374 6.93091 71.2794 7.16897C71.5214 7.40702 71.7134 7.69104 71.844 8.00434C71.9747 8.31764 72.0414 8.6539 72.0403 8.99335C72.0432 9.33235 71.9793 9.6686 71.8523 9.9829C71.7253 10.2972 71.5376 10.5834 71.2999 10.8252C71.0623 11.0669 70.7793 11.2595 70.4672 11.3919C70.1552 11.5244 69.82 11.594 69.4811 11.5969C69.1417 11.602 68.8048 11.5393 68.49 11.4124C68.1752 11.2856 67.889 11.0972 67.648 10.8583C67.407 10.6193 67.2161 10.3347 67.0866 10.021C66.957 9.70734 66.8914 9.37097 66.8936 9.03161Z" fill="#BB0B2B"/>
</svg>
