<svg width="80" height="80" viewBox="0 0 80 80" fill="none" xmlns="http://www.w3.org/2000/svg">
<g filter="url(#filter0_d_1_491)">
<path d="M39.9447 59.331C37.3209 59.331 34.697 59.331 32.0703 59.331C30.2733 59.331 29.4774 58.7038 29.4464 56.9743C29.3846 53.6614 28.0403 51.0544 25.8467 48.5824C16.2849 37.8732 21.5383 20.9319 35.3522 17.5712C43.4882 15.6026 52.0741 19.1068 56.2279 26.115C60.5954 33.4832 59.7123 42.6231 53.9106 48.8721C51.7985 51.1472 50.6342 53.6923 50.5358 56.7943C50.4824 58.7207 49.7512 59.3254 47.7995 59.3254C45.1859 59.3329 42.5677 59.3347 39.9447 59.331ZM42.0427 27.6871C42.0427 26.3147 41.2271 25.5413 39.88 25.4878C35.5547 25.3247 31.1844 28.5083 29.9583 32.7183C29.5505 34.1244 29.9892 35.2493 31.0832 35.6487C32.315 36.0874 33.3696 35.539 33.8955 34.0878C34.801 31.5568 36.5081 30.0719 39.1938 29.7428C39.6101 29.6922 40.0375 29.6388 40.4397 29.5488C40.8859 29.4826 41.2934 29.2581 41.5877 28.9163C41.882 28.5745 42.0435 28.1381 42.0427 27.6871Z" fill="#BB0B2B"/>
<path d="M48.3507 63.6422C48.7247 68.1419 47.1245 71.092 43.5473 71.7163C41.1954 72.0946 38.7981 72.0946 36.4462 71.7163C33.4989 71.2664 31.64 68.679 31.5613 65.6896C31.5444 65.0399 31.5613 64.3875 31.5613 63.6366L48.3507 63.6422Z" fill="#BB0B2B"/>
<path d="M42.1186 6.40362C42.1186 7.76196 42.1636 9.12311 42.1186 10.4786C42.0567 11.9438 41.2384 12.7763 39.9982 12.7735C38.7579 12.7707 37.9227 11.9298 37.8974 10.4618C37.843 7.74508 37.843 5.02654 37.8974 2.30611C37.9255 0.860592 38.8001 -0.00559736 40.0178 2.72254e-05C41.2356 0.00565181 42.0652 0.871844 42.1242 2.3258C42.1636 3.67289 42.1214 5.03122 42.1186 6.40362Z" fill="#BB0B2B"/>
<path d="M10.5816 33.8657C11.8921 33.8657 13.2054 33.8151 14.5188 33.8657C15.9699 33.9332 16.7995 34.7769 16.7686 36.0227C16.7405 37.2151 15.9249 38.0475 14.5553 38.0757C11.7937 38.1357 9.03106 38.1357 6.26751 38.0757C4.83605 38.0447 3.96987 37.1392 4.0008 35.9186C4.02892 34.7544 4.86417 33.9247 6.22532 33.8629C7.67646 33.8151 9.13041 33.8657 10.5816 33.8657Z" fill="#BB0B2B"/>
<path d="M69.5385 38.1066C68.1801 38.1066 66.819 38.1544 65.4635 38.0926C64.0151 38.0279 63.1883 37.1729 63.2136 35.9243C63.2446 34.7375 64.0573 33.9107 65.4353 33.8826C68.197 33.8226 70.9606 33.8226 73.726 33.8826C75.149 33.9135 76.018 34.8331 75.9758 36.048C75.9421 37.2151 75.1068 38.0335 73.726 38.0954C72.3451 38.1572 70.9418 38.1066 69.5385 38.1066Z" fill="#BB0B2B"/>
<path d="M24.4293 18.2546C23.9821 18.8171 23.6165 19.6326 23.0091 19.8858C22.4016 20.1389 21.2964 20.1023 20.8549 19.7002C18.6472 17.6978 16.5324 15.5801 14.4963 13.3978C13.7145 12.5541 13.8354 11.4292 14.6875 10.6192C15.5396 9.80931 16.6308 9.73619 17.4773 10.5377C19.6118 12.5569 21.662 14.6661 23.7093 16.7754C24.0159 17.0903 24.1143 17.5881 24.4293 18.2546Z" fill="#BB0B2B"/>
<path d="M66.2256 11.9748C65.7728 12.7482 65.5478 13.3809 65.1232 13.814C63.3121 15.6954 61.4672 17.5347 59.5886 19.3655C58.489 20.4454 57.2937 20.4904 56.3854 19.5595C55.477 18.6287 55.5417 17.5009 56.5541 16.466C58.444 14.5283 60.3085 12.5597 62.3278 10.7627C62.8677 10.2818 63.987 10.1158 64.7154 10.2986C65.2975 10.4421 65.6913 11.3392 66.2256 11.9748Z" fill="#BB0B2B"/>
</g>
<defs>
<filter id="filter0_d_1_491" x="0" y="0" width="79.9773" height="80" filterUnits="userSpaceOnUse" color-interpolation-filters="sRGB">
<feFlood flood-opacity="0" result="BackgroundImageFix"/>
<feColorMatrix in="SourceAlpha" type="matrix" values="0 0 0 0 0 0 0 0 0 0 0 0 0 0 0 0 0 0 127 0" result="hardAlpha"/>
<feOffset dy="4"/>
<feGaussianBlur stdDeviation="2"/>
<feComposite in2="hardAlpha" operator="out"/>
<feColorMatrix type="matrix" values="0 0 0 0 0 0 0 0 0 0 0 0 0 0 0 0 0 0 0.25 0"/>
<feBlend mode="normal" in2="BackgroundImageFix" result="effect1_dropShadow_1_491"/>
<feBlend mode="normal" in="SourceGraphic" in2="effect1_dropShadow_1_491" result="shape"/>
</filter>
</defs>
</svg>
