<svg width="73" height="72" viewBox="0 0 73 72" fill="none" xmlns="http://www.w3.org/2000/svg">
<path d="M0 51.3954V38.6169H72.0065V51.3954H0ZM5.0684 43.6918V41.2006H2.59008V43.6918H5.0684ZM66.9595 41.1898V43.6724H69.4271V41.1898H66.9595ZM2.56859 48.8333H5.06194V46.3571H2.56859V48.8333ZM66.9402 48.8118H69.4465V46.3507H66.9402V48.8118Z" fill="#BB0B2B"/>
<path d="M72.0258 59.228V72H0V59.228H72.0258ZM5.0512 64.2921V61.7858H2.57934V64.2921H5.0512ZM66.9724 61.7815V64.2856H69.4422V61.7815H66.9724ZM5.0684 69.4357V66.9488H2.59653V69.4357H5.0684ZM66.9424 69.4099H69.4486V66.9466H66.9424V69.4099Z" fill="#BB0B2B"/>
<path d="M6.47843 35.9452C6.14527 34.6125 6.5773 33.7119 7.67996 32.9682C8.89655 32.145 9.97772 31.124 11.1492 30.232C12.3206 29.3399 12.8558 28.162 12.8429 26.6918C12.8193 24.2543 12.8429 21.819 12.8429 19.3257H18.0016V21.2279C18.0016 23.0786 18.0016 24.9271 18.0016 26.7778C18.0016 28.1513 18.4702 29.2712 19.575 30.1266C20.783 31.0616 21.9114 32.1041 23.1667 32.9682C24.2565 33.7184 24.7143 34.6104 24.3425 35.9452H6.47843Z" fill="#BB0B2B"/>
<path d="M45.0223 27.8009C40.358 23.6847 31.7602 23.6718 27.0056 27.7644C27.0056 26.5199 26.9562 25.3205 27.0357 24.1318C27.0572 23.803 27.4011 23.4333 27.6806 23.1925C28.9337 22.1457 30.1933 21.1011 31.5066 20.1339C32.8779 19.1258 33.5443 17.8361 33.4303 16.1402C33.4174 15.9252 33.4303 15.721 33.4303 15.4588H38.589V16.5701C38.5658 17.188 38.6917 17.8025 38.9562 18.3615C39.2208 18.9205 39.6161 19.4075 40.1087 19.7813C41.5187 20.8883 42.9029 22.0297 44.3151 23.1366C44.5574 23.3017 44.752 23.5276 44.8792 23.7918C45.0063 24.0559 45.0616 24.3489 45.0395 24.6413C44.9879 25.6558 45.0223 26.6746 45.0223 27.8009Z" fill="#BB0B2B"/>
<path d="M47.6468 35.9473C47.5243 34.4105 47.6253 34.2278 48.9235 33.5829C50.7162 32.678 52.5067 31.7774 54.2972 30.8618C55.4235 30.2836 55.5675 29.7053 54.942 28.5898C54.669 28.1105 54.4455 27.6053 54.1596 27.0336H61.6827C61.3667 27.6483 61.1023 28.1921 60.81 28.7231C60.2834 29.6796 60.4596 30.3201 61.4548 30.8231C63.2668 31.7473 65.0831 32.6587 66.8972 33.5744C68.1869 34.2321 68.2944 34.4105 68.1869 35.9538L47.6468 35.9473Z" fill="#BB0B2B"/>
<path d="M27.0271 35.9452V28.6758C27.9364 30.0428 28.7467 31.2787 29.5807 32.5104C30.2255 33.4884 30.6554 33.6023 31.7301 33.1273C33.0718 32.5107 34.5309 32.1915 36.0075 32.1915C37.4841 32.1915 38.9432 32.5107 40.2849 33.1273C41.3704 33.6023 41.7895 33.4862 42.4344 32.5018C43.2533 31.2787 44.0658 30.0514 44.9492 28.7252V35.943L27.0271 35.9452Z" fill="#BB0B2B"/>
<path d="M68.1611 54.0801V56.5584H47.6661V54.0801H68.1611Z" fill="#BB0B2B"/>
<path d="M6.43759 56.5455V54.0693H24.3532V56.5498L6.43759 56.5455Z" fill="#BB0B2B"/>
<path d="M27.0357 56.5433V54.0693H44.9578V56.5455L27.0357 56.5433Z" fill="#BB0B2B"/>
<path d="M53.7125 24.3597C53.7125 22.0512 54.7872 20.0952 55.3461 17.9995H60.4489C61.012 20.093 62.0782 22.0533 62.0932 24.3597H53.7125Z" fill="#BB0B2B"/>
<path d="M61.7235 10.3001V15.4029H54.0908V10.3001H61.7235Z" fill="#BB0B2B"/>
<path d="M41.9035 28.7381L40.7019 30.5329C37.6792 29.3883 34.3423 29.3883 31.3196 30.5329L30.1503 28.7832C33.0864 26.7713 38.4643 26.6252 41.9035 28.7381Z" fill="#BB0B2B"/>
<path d="M39.8292 0V2.48261H32.1944V0.00859306L39.8292 0Z" fill="#BB0B2B"/>
<path d="M32.1858 7.62408V5.14793H39.8077V7.62408H32.1858Z" fill="#BB0B2B"/>
<path d="M39.8292 10.313V12.7849H32.1794V10.313H39.8292Z" fill="#BB0B2B"/>
<path d="M19.2354 14.1734V16.6496H11.6135V14.1734H19.2354Z" fill="#BB0B2B"/>
</svg>
