<svg width="51" height="72" viewBox="0 0 51 72" fill="none" xmlns="http://www.w3.org/2000/svg">
<path d="M21.9243 66.7733V51.4407H50.1203V66.7733H21.9243Z" fill="#BB0B2B"/>
<path d="M17.7804 36.6127C19.3843 38.4635 20.9152 40.3444 21.8599 42.6247C22.0467 43.0777 22.0467 43.3611 21.6259 43.7111C20.4557 44.6859 19.7815 45.9828 19.4229 47.533H4.42528C3.02106 47.533 2.59379 47.9624 2.59379 49.343C2.59379 54.1382 2.59379 58.9335 2.59379 63.7287C2.59379 65.1158 3.02321 65.5409 4.42528 65.5409H19.2576V69.3606C19.0193 69.3735 18.7874 69.395 18.5533 69.395C12.6874 69.395 6.81932 69.3842 0.94694 69.4143C0.201889 69.4143 -0.00422886 69.1996 6.5385e-05 68.4631C0.027978 61.981 6.01435e-05 55.4988 0.0215314 49.0188C0.032267 45.0445 1.37637 41.5382 3.87133 38.4592C4.37375 37.8387 4.88477 37.2225 5.40008 36.5955C9.54545 39.2551 13.6722 39.2608 17.7804 36.6127Z" fill="#BB0B2B"/>
<path d="M30.9208 36.0094H41.1475C40.8104 37.4351 40.6 38.835 40.1384 40.1469C39.651 41.5318 40.1512 42.1136 41.3021 42.5216C43.3655 43.2516 45.4138 44.0246 47.4536 44.8212C49.1713 45.4932 50.189 46.9898 50.1568 48.7633H21.9952C21.6924 47.3011 22.854 45.4997 24.5717 44.8319C26.59 44.0525 28.6148 43.2881 30.6545 42.5667C31.829 42.1501 32.4645 41.6585 31.9149 40.1039C31.464 38.8114 31.2579 37.4308 30.9208 36.0094Z" fill="#BB0B2B"/>
<path d="M19.2791 50.1696V62.93H5.23045V50.1696H19.2791Z" fill="#BB0B2B"/>
<path d="M9.02656 11.5687H14.1689V12.4597C14.1689 16.0175 14.2011 19.5775 14.1689 23.1374C14.1195 27.7601 14.549 30.4376 16.3933 34.3217C14.1281 36.5934 9.42163 36.6149 6.93312 34.4613C7.49996 32.6599 8.15483 30.9379 8.56278 29.1601C8.86268 27.7483 9.0138 26.3091 9.01368 24.8658C9.07165 20.7455 9.03515 16.623 9.03515 12.5027L9.02656 11.5687Z" fill="#BB0B2B"/>
<path d="M30.8864 33.3298C30.9054 30.3647 31.5645 27.4388 32.8188 24.752C32.8866 24.6521 32.976 24.5687 33.0805 24.5081C33.185 24.4475 33.3018 24.4113 33.4222 24.402C35.1613 24.3748 36.9012 24.3748 38.6418 24.402C38.7626 24.4103 38.8799 24.4457 38.9851 24.5055C39.0903 24.5654 39.1807 24.6482 39.2495 24.7477C40.5008 27.4393 41.1598 30.3681 41.1819 33.3362L30.8864 33.3298Z" fill="#BB0B2B"/>
<path d="M50.1375 69.4594C50.2728 72.4976 50.3372 71.9608 47.9711 71.9672C39.6946 71.9844 31.4182 71.9844 23.1417 71.9672C21.89 71.9672 21.89 71.9672 21.8878 70.7069V69.4529L50.1375 69.4594Z" fill="#BB0B2B"/>
<path d="M15.1759 0C14.9247 1.27324 14.6842 2.4971 14.433 3.76605H8.76891L8.01312 0H15.1759Z" fill="#BB0B2B"/>
<path d="M7.77694 8.90196V6.43062H15.3906V8.90196H7.77694Z" fill="#BB0B2B"/>
<path d="M39.8485 17.922H32.2305V15.4421H39.8399L39.8485 17.922Z" fill="#BB0B2B"/>
<path d="M39.8807 11.5816V12.7539H32.2305V11.5816H39.8807Z" fill="#BB0B2B"/>
<path d="M32.209 21.7546V20.5845H39.8506V21.7546H32.209Z" fill="#BB0B2B"/>
</svg>
