<svg width="16" height="16" viewBox="0 0 16 16" fill="none" xmlns="http://www.w3.org/2000/svg">
<path d="M5.33334 3.83331C5.06001 3.83331 4.83334 3.60665 4.83334 3.33331V1.33331C4.83334 1.05998 5.06001 0.833313 5.33334 0.833313C5.60668 0.833313 5.83334 1.05998 5.83334 1.33331V3.33331C5.83334 3.60665 5.60668 3.83331 5.33334 3.83331Z" fill="#5C798B"/>
<path d="M10.6667 3.83331C10.3933 3.83331 10.1667 3.60665 10.1667 3.33331V1.33331C10.1667 1.05998 10.3933 0.833313 10.6667 0.833313C10.94 0.833313 11.1667 1.05998 11.1667 1.33331V3.33331C11.1667 3.60665 10.94 3.83331 10.6667 3.83331Z" fill="#5C798B"/>
<path d="M5.66667 9.66667C5.58 9.66667 5.49333 9.64668 5.41333 9.61335C5.32667 9.58001 5.26 9.53333 5.19333 9.47333C5.07333 9.34667 5 9.18 5 9C5 8.91334 5.02 8.82667 5.05333 8.74667C5.08667 8.66667 5.13333 8.59334 5.19333 8.52668C5.26 8.46668 5.32667 8.42 5.41333 8.38666C5.65333 8.28666 5.95333 8.34001 6.14 8.52668C6.26 8.65334 6.33333 8.82667 6.33333 9C6.33333 9.04 6.32667 9.08668 6.32 9.13335C6.31333 9.17335 6.3 9.21334 6.28 9.25334C6.26667 9.29334 6.24667 9.33334 6.22 9.37334C6.2 9.40667 6.16667 9.44 6.14 9.47333C6.01333 9.59333 5.84 9.66667 5.66667 9.66667Z" fill="#5C798B"/>
<path d="M8.00001 9.66664C7.91334 9.66664 7.82668 9.64665 7.74668 9.61332C7.66001 9.57999 7.59334 9.5333 7.52668 9.4733C7.40668 9.34664 7.33334 9.17998 7.33334 8.99998C7.33334 8.91331 7.35334 8.82664 7.38668 8.74664C7.42001 8.66664 7.46668 8.59332 7.52668 8.52665C7.59334 8.46665 7.66001 8.41997 7.74668 8.38663C7.98668 8.27997 8.28668 8.33998 8.47334 8.52665C8.59334 8.65332 8.66668 8.82664 8.66668 8.99998C8.66668 9.03998 8.66001 9.08665 8.65334 9.13332C8.64668 9.17332 8.63334 9.21331 8.61334 9.25331C8.60001 9.29331 8.58001 9.33331 8.55334 9.37331C8.53334 9.40664 8.50001 9.43997 8.47334 9.4733C8.34668 9.5933 8.17334 9.66664 8.00001 9.66664Z" fill="#5C798B"/>
<path d="M10.3333 9.66664C10.2467 9.66664 10.16 9.64665 10.08 9.61332C9.99332 9.57999 9.92666 9.5333 9.85999 9.4733C9.83332 9.43997 9.80666 9.40664 9.77999 9.37331C9.75332 9.33331 9.73332 9.29331 9.71999 9.25331C9.69999 9.21331 9.68666 9.17332 9.67999 9.13332C9.67332 9.08665 9.66666 9.03998 9.66666 8.99998C9.66666 8.82664 9.73999 8.65332 9.85999 8.52665C9.92666 8.46665 9.99332 8.41997 10.08 8.38663C10.3267 8.27997 10.62 8.33998 10.8067 8.52665C10.9267 8.65332 11 8.82664 11 8.99998C11 9.03998 10.9933 9.08665 10.9867 9.13332C10.98 9.17332 10.9667 9.21331 10.9467 9.25331C10.9333 9.29331 10.9133 9.33331 10.8867 9.37331C10.8667 9.40664 10.8333 9.43997 10.8067 9.4733C10.68 9.5933 10.5067 9.66664 10.3333 9.66664Z" fill="#5C798B"/>
<path d="M5.66667 12C5.58 12 5.49333 11.98 5.41333 11.9467C5.33333 11.9133 5.26 11.8666 5.19333 11.8066C5.07333 11.68 5 11.5066 5 11.3333C5 11.2466 5.02 11.16 5.05333 11.08C5.08667 10.9933 5.13333 10.92 5.19333 10.86C5.44 10.6133 5.89333 10.6133 6.14 10.86C6.26 10.9867 6.33333 11.16 6.33333 11.3333C6.33333 11.5066 6.26 11.68 6.14 11.8066C6.01333 11.9266 5.84 12 5.66667 12Z" fill="#5C798B"/>
<path d="M8.00001 12C7.82668 12 7.65334 11.9266 7.52668 11.8066C7.40668 11.68 7.33334 11.5066 7.33334 11.3333C7.33334 11.2466 7.35334 11.16 7.38668 11.08C7.42001 10.9933 7.46668 10.92 7.52668 10.86C7.77334 10.6133 8.22668 10.6133 8.47334 10.86C8.53334 10.92 8.58001 10.9933 8.61334 11.08C8.64668 11.16 8.66668 11.2466 8.66668 11.3333C8.66668 11.5066 8.59334 11.68 8.47334 11.8066C8.34668 11.9266 8.17334 12 8.00001 12Z" fill="#5C798B"/>
<path d="M10.3333 12C10.16 12 9.98666 11.9267 9.85999 11.8067C9.79999 11.7467 9.75332 11.6733 9.71999 11.5867C9.68666 11.5067 9.66666 11.42 9.66666 11.3333C9.66666 11.2467 9.68666 11.16 9.71999 11.08C9.75332 10.9933 9.79999 10.92 9.85999 10.86C10.0133 10.7067 10.2467 10.6333 10.46 10.68C10.5067 10.6867 10.5467 10.7 10.5867 10.72C10.6267 10.7333 10.6667 10.7533 10.7067 10.78C10.74 10.8 10.7733 10.8333 10.8067 10.86C10.9267 10.9867 11 11.16 11 11.3333C11 11.5067 10.9267 11.68 10.8067 11.8067C10.68 11.9267 10.5067 12 10.3333 12Z" fill="#5C798B"/>
<path d="M13.6667 6.56H2.33334C2.06001 6.56 1.83334 6.33333 1.83334 6.06C1.83334 5.78666 2.06001 5.56 2.33334 5.56H13.6667C13.94 5.56 14.1667 5.78666 14.1667 6.06C14.1667 6.33333 13.94 6.56 13.6667 6.56Z" fill="#5C798B"/>
<path d="M10.6667 15.1666H5.33333C2.9 15.1666 1.5 13.7666 1.5 11.3333V5.66665C1.5 3.23331 2.9 1.83331 5.33333 1.83331H10.6667C13.1 1.83331 14.5 3.23331 14.5 5.66665V11.3333C14.5 13.7666 13.1 15.1666 10.6667 15.1666ZM5.33333 2.83331C3.42667 2.83331 2.5 3.75998 2.5 5.66665V11.3333C2.5 13.24 3.42667 14.1666 5.33333 14.1666H10.6667C12.5733 14.1666 13.5 13.24 13.5 11.3333V5.66665C13.5 3.75998 12.5733 2.83331 10.6667 2.83331H5.33333Z" fill="#5C798B"/>
</svg>
