<svg width="16" height="16" viewBox="0 0 16 16" fill="none" xmlns="http://www.w3.org/2000/svg">
<path d="M8.00012 10.8867C6.40679 10.8867 5.11346 9.59333 5.11346 7.99999C5.11346 6.40666 6.40679 5.11333 8.00012 5.11333C9.59346 5.11333 10.8868 6.40666 10.8868 7.99999C10.8868 9.59333 9.59346 10.8867 8.00012 10.8867ZM8.00012 6.11333C6.96012 6.11333 6.11346 6.95999 6.11346 7.99999C6.11346 9.03999 6.96012 9.88666 8.00012 9.88666C9.04012 9.88666 9.88679 9.03999 9.88679 7.99999C9.88679 6.95999 9.04012 6.11333 8.00012 6.11333Z" fill="#AAB7BF"/>
<path d="M7.69679 14.0267C5.19012 14.0267 2.82345 12.56 1.19679 10.0133C0.49012 8.91333 0.49012 7.12 1.19679 6.01333C2.83012 3.46667 5.19679 2 7.69679 2C10.1968 2 12.5635 3.46667 14.1901 6.01333C14.8968 7.11333 14.8968 8.90667 14.1901 10.0133C12.5635 12.56 10.1968 14.0267 7.69679 14.0267ZM7.69679 3C5.54345 3 3.48345 4.29333 2.04345 6.55333C1.54345 7.33333 1.54345 8.69333 2.04345 9.47333C3.48345 11.7333 5.54345 13.0267 7.69679 13.0267C9.85012 13.0267 11.9101 11.7333 13.3501 9.47333C13.8501 8.69333 13.8501 7.33333 13.3501 6.55333C11.9101 4.29333 9.85012 3 7.69679 3Z" fill="#AAB7BF"/>
</svg>
