<svg width="24" height="25" viewBox="0 0 24 25" fill="none" xmlns="http://www.w3.org/2000/svg">
<path d="M12 23.31C11.31 23.31 10.66 22.96 10.2 22.35L8.7 20.35C8.67 20.31 8.55 20.25 8.49 20.25H8C3.83 20.25 1.25 19.12 1.25 13.5V8.5C1.25 4.08 3.58 1.75 8 1.75H12C12.41 1.75 12.75 2.09 12.75 2.5C12.75 2.91 12.41 3.25 12 3.25H8C4.42 3.25 2.75 4.92 2.75 8.5V13.5C2.75 18.02 4.3 18.75 8 18.75H8.5C9.01 18.75 9.59 19.04 9.9 19.45L11.4 21.45C11.75 21.91 12.25 21.91 12.6 21.45L14.1 19.45C14.43 19.01 14.95 18.75 15.5 18.75H16C19.58 18.75 21.25 17.08 21.25 13.5V8.5C21.25 8.09 21.59 7.75 22 7.75C22.41 7.75 22.75 8.09 22.75 8.5V13.5C22.75 17.92 20.42 20.25 16 20.25H15.5C15.42 20.25 15.35 20.29 15.3 20.35L13.8 22.35C13.34 22.96 12.69 23.31 12 23.31Z" fill="#658092"/>
<path d="M12 12.5C11.44 12.5 11 12.05 11 11.5C11 10.95 11.45 10.5 12 10.5C12.55 10.5 13 10.95 13 11.5C13 12.05 12.56 12.5 12 12.5Z" fill="#658092"/>
<path d="M16 12.5C15.44 12.5 15 12.05 15 11.5C15 10.95 15.45 10.5 16 10.5C16.55 10.5 17 10.95 17 11.5C17 12.05 16.56 12.5 16 12.5Z" fill="#658092"/>
<path d="M8 12.5C7.44 12.5 7 12.05 7 11.5C7 10.95 7.45 10.5 8 10.5C8.55 10.5 9 10.95 9 11.5C9 12.05 8.56 12.5 8 12.5Z" fill="#658092"/>
<path d="M17.9999 8.25C17.1399 8.25 15.1099 7.23 14.4899 5.36C14.2399 4.62 14.2999 3.77 14.6499 3.1C14.9599 2.5 15.48 2.06 16.12 1.86C16.77 1.66 17.4599 1.75 17.9999 2.08C18.5399 1.75 19.2299 1.66 19.8899 1.86C20.5299 2.06 21.05 2.5 21.36 3.1C21.71 3.77 21.77 4.62 21.52 5.36C20.89 7.26 18.7699 8.25 17.9999 8.25ZM15.9099 4.88C16.3299 6.14 17.76 6.72 18.02 6.75C18.31 6.72 19.71 6.07 20.1 4.89C20.22 4.53 20.19 4.1 20.03 3.79C19.9 3.54 19.71 3.38 19.45 3.3C19.17 3.2 18.79 3.25 18.62 3.5C18.48 3.7 18.26 3.82 18.02 3.83C17.78 3.83 17.5499 3.72 17.3999 3.53C17.1899 3.26 16.8199 3.22 16.5499 3.3C16.2899 3.38 16.1 3.54 15.97 3.79C15.82 4.1 15.7899 4.52 15.9099 4.88Z" fill="#658092"/>
</svg>
