<svg width="24" height="25" viewBox="0 0 24 25" fill="none" xmlns="http://www.w3.org/2000/svg">
<path d="M16 23.25H8C2.25 23.25 2.25 20.2 2.25 17.5V16.5C2.25 14.27 2.25 11.75 7 11.75C8.19 11.75 8.63 12.04 9.25 12.5C9.28 12.53 9.32 12.55 9.35 12.59L10.37 13.67C11.23 14.58 12.79 14.58 13.65 13.67L14.67 12.59C14.7 12.56 14.73 12.53 14.77 12.5C15.39 12.03 15.83 11.75 17.02 11.75C21.77 11.75 21.77 14.27 21.77 16.5V17.5C21.75 21.32 19.82 23.25 16 23.25ZM7 13.25C3.75 13.25 3.75 14.27 3.75 16.5V17.5C3.75 20.24 3.75 21.75 8 21.75H16C18.98 21.75 20.25 20.48 20.25 17.5V16.5C20.25 14.27 20.25 13.25 17 13.25C16.28 13.25 16.13 13.34 15.7 13.66L14.73 14.69C14.01 15.45 13.04 15.87 12 15.87C10.96 15.87 9.99 15.45 9.27 14.69L8.3 13.66C7.87 13.34 7.72 13.25 7 13.25Z" fill="#658092"/>
<path d="M19 13.25C18.59 13.25 18.25 12.91 18.25 12.5V6.5C18.25 4.27 18.25 3.25 15 3.25H9C5.75 3.25 5.75 4.27 5.75 6.5V12.5C5.75 12.91 5.41 13.25 5 13.25C4.59 13.25 4.25 12.91 4.25 12.5V6.5C4.25 4.27 4.25 1.75 9 1.75H15C19.75 1.75 19.75 4.27 19.75 6.5V12.5C19.75 12.91 19.41 13.25 19 13.25Z" fill="#658092"/>
<path d="M13.88 10.48H10.55C10.14 10.48 9.79999 10.14 9.79999 9.73C9.79999 9.32 10.14 8.98 10.55 8.98H13.88C14.29 8.98 14.63 9.32 14.63 9.73C14.63 10.14 14.3 10.48 13.88 10.48Z" fill="#658092"/>
<path d="M14.72 7.48H9.71997C9.30997 7.48 8.96997 7.14 8.96997 6.73C8.96997 6.32 9.30997 5.98 9.71997 5.98H14.72C15.13 5.98 15.47 6.32 15.47 6.73C15.47 7.14 15.14 7.48 14.72 7.48Z" fill="#658092"/>
</svg>
