<svg width="24" height="25" viewBox="0 0 24 25" fill="none" xmlns="http://www.w3.org/2000/svg">
<path d="M17.8701 22.37C17.5601 22.37 17.2501 22.29 16.9701 22.12L12.9601 19.74C12.5401 19.73 12.1201 19.7 11.7201 19.64C11.4501 19.6 11.2201 19.42 11.1201 19.16C11.0201 18.9 11.0701 18.62 11.2501 18.41C11.9101 17.64 12.2501 16.72 12.2501 15.74C12.2501 13.32 10.1201 11.35 7.50008 11.35C6.52008 11.35 5.58007 11.62 4.79007 12.14C4.57007 12.28 4.30007 12.3 4.06007 12.19C3.83007 12.08 3.66008 11.86 3.63008 11.6C3.60008 11.32 3.58008 11.04 3.58008 10.75C3.58008 5.79 7.88008 1.76001 13.1601 1.76001C18.4401 1.76001 22.7401 5.79 22.7401 10.75C22.7401 13.47 21.4801 15.97 19.2601 17.68L19.6001 20.4C19.6801 21.08 19.3801 21.72 18.8101 22.09C18.5301 22.27 18.2001 22.37 17.8701 22.37ZM13.1501 18.23C13.2901 18.22 13.4301 18.26 13.5501 18.34L17.7401 20.83C17.8501 20.9 17.9401 20.87 18.0001 20.83C18.0501 20.8 18.1301 20.72 18.1101 20.58L17.7201 17.42C17.6901 17.14 17.8101 16.87 18.0301 16.71C20.0701 15.28 21.2401 13.1 21.2401 10.73C21.2401 6.59998 17.6201 3.23999 13.1601 3.23999C8.87008 3.23999 5.35007 6.36003 5.09007 10.28C5.84007 9.99003 6.65008 9.83002 7.49008 9.83002C10.9401 9.83002 13.7401 12.47 13.7401 15.72C13.7501 16.6 13.5401 17.45 13.1501 18.23Z" fill="#658092"/>
<path d="M4.57977 23.2501C4.31977 23.2501 4.06977 23.1801 3.83977 23.0301C3.38977 22.7401 3.14978 22.2401 3.20978 21.7101L3.40977 20.17C2.05977 19.07 1.25977 17.44 1.25977 15.73C1.25977 13.78 2.27978 11.9601 3.98978 10.8701C5.01978 10.2001 6.23977 9.84009 7.50977 9.84009C10.9598 9.84009 13.7598 12.48 13.7598 15.73C13.7598 17.05 13.2798 18.3501 12.3998 19.3801C11.2698 20.7501 9.57977 21.55 7.71977 21.61L5.27977 23.0601C5.05977 23.1901 4.81977 23.2501 4.57977 23.2501ZM7.49977 11.3401C6.51977 11.3401 5.57976 11.6101 4.78976 12.1301C3.50976 12.9501 2.74977 14.29 2.74977 15.73C2.74977 17.12 3.42978 18.3901 4.62978 19.2101C4.85978 19.3701 4.97977 19.64 4.94977 19.92L4.72977 21.6301L7.11977 20.2101C7.23977 20.1401 7.36977 20.1 7.49977 20.1C8.96977 20.1 10.3598 19.4701 11.2398 18.4001C11.8998 17.6201 12.2498 16.7 12.2498 15.72C12.2498 13.31 10.1198 11.3401 7.49977 11.3401Z" fill="#658092"/>
</svg>
