<svg width="18.000000" height="18.000000" viewBox="0 0 18 18" fill="none" xmlns="http://www.w3.org/2000/svg" xmlns:xlink="http://www.w3.org/1999/xlink">
	<desc>
			Created with Pixso.
	</desc>
	<defs/>
	<path id="Vector" d="M9 15.93C8.85 15.93 8.71 15.88 8.6 15.77L4.05 11.22C3.83 11 3.83 10.64 4.05 10.42C4.26 10.2 4.62 10.2 4.84 10.42L9 14.58L13.15 10.42C13.37 10.2 13.73 10.2 13.95 10.42C14.16 10.64 14.16 11 13.95 11.22L9.39 15.77C9.28 15.88 9.14 15.93 9 15.93Z" fill="#5C798B" fill-opacity="1.000000" fill-rule="nonzero"/>
	<path id="Vector" d="M9 15.81C8.69 15.81 8.43 15.55 8.43 15.24L8.43 2.62C8.43 2.31 8.69 2.06 9 2.06C9.3 2.06 9.56 2.31 9.56 2.62L9.56 15.24C9.56 15.55 9.3 15.81 9 15.81Z" fill="#5C798B" fill-opacity="1.000000" fill-rule="nonzero"/>
	<g opacity="0.000000"/>
</svg>
