<svg width="24.000000" height="24.000000" viewBox="0 0 24 24" fill="none" xmlns="http://www.w3.org/2000/svg" xmlns:xlink="http://www.w3.org/1999/xlink">
	<desc>
			Created with Pixso.
	</desc>
	<defs/>
	<path id="Vector" d="M16.5 8.63C16.09 8.63 15.75 8.29 15.75 7.88L15.75 6.5C15.75 5.45 15.3 4.43 14.52 3.72C13.73 3 12.71 2.67 11.63 2.77C9.83 2.94 8.25 4.78 8.25 6.7L8.25 7.67C8.25 8.08 7.9 8.42 7.5 8.42C7.09 8.42 6.75 8.08 6.75 7.67L6.75 6.69C6.75 4 8.91 1.52 11.49 1.27C12.99 1.13 14.43 1.6 15.53 2.61C16.62 3.6 17.25 5.02 17.25 6.5L17.25 7.88C17.25 8.29 16.91 8.63 16.5 8.63Z" fill="#5C798B" fill-opacity="1.000000" fill-rule="nonzero"/>
	<path id="Vector" d="M14.99 22.75L8.99 22.75C4.37 22.75 3.51 20.6 3.29 18.51L2.54 12.52C2.43 11.44 2.39 9.89 3.44 8.72C4.34 7.72 5.83 7.25 7.99 7.25L15.99 7.25C18.16 7.25 19.65 7.73 20.54 8.72C21.59 9.89 21.55 11.44 21.45 12.5L20.7 18.51C20.47 20.6 19.61 22.75 14.99 22.75ZM7.99 8.75C6.3 8.75 5.14 9.08 4.55 9.73C4.06 10.28 3.9 11.11 4.03 12.35L4.78 18.34C4.95 19.94 5.39 21.26 8.99 21.26L14.99 21.26C18.59 21.26 19.03 19.95 19.2 18.36L19.95 12.35C20.09 11.13 19.92 10.3 19.43 9.75C18.84 9.08 17.68 8.75 15.99 8.75L7.99 8.75Z" fill="#5C798B" fill-opacity="1.000000" fill-rule="nonzero"/>
	<path id="Vector" d="M15.42 13.15C14.86 13.15 14.41 12.7 14.41 12.15C14.41 11.6 14.86 11.15 15.41 11.15C15.96 11.15 16.41 11.6 16.41 12.15C16.41 12.7 15.97 13.15 15.42 13.15Z" fill="#5C798B" fill-opacity="1.000000" fill-rule="nonzero"/>
	<path id="Vector" d="M8.42 13.15C7.86 13.15 7.41 12.7 7.41 12.15C7.41 11.6 7.86 11.15 8.41 11.15C8.96 11.15 9.41 11.6 9.41 12.15C9.41 12.7 8.97 13.15 8.42 13.15Z" fill="#5C798B" fill-opacity="1.000000" fill-rule="nonzero"/>
	<g opacity="0.000000">
		<path id="Vector" d="M0 0L24 0L24 24L0 24L0 0Z" fill="#5C798B" fill-opacity="1.000000" fill-rule="evenodd"/>
	</g>
</svg>
