<svg width="12.000000" height="12.000000" viewBox="0 0 12 12" fill="none" xmlns="http://www.w3.org/2000/svg" xmlns:xlink="http://www.w3.org/1999/xlink">
	<desc>
			Created with Pixso.
	</desc>
	<defs/>
	<path id="Vector" d="M6 1C3.24 1 1 3.24 1 6C1 8.75 3.24 11 6 11C8.75 11 11 8.75 11 6C11 3.24 8.75 1 6 1ZM8.17 7.78C8.1 7.9 7.98 7.96 7.85 7.96C7.78 7.96 7.72 7.95 7.66 7.91L6.11 6.98C5.72 6.76 5.44 6.25 5.44 5.81L5.44 3.76C5.44 3.55 5.61 3.38 5.81 3.38C6.02 3.38 6.19 3.55 6.19 3.76L6.19 5.81C6.19 5.98 6.34 6.25 6.49 6.34L8.04 7.27C8.22 7.37 8.28 7.6 8.17 7.78Z" fill="#94959B" fill-opacity="1.000000" fill-rule="nonzero"/>
	<g opacity="0.000000"/>
</svg>
