<svg width="17" height="16" viewBox="0 0 17 16" fill="none" xmlns="http://www.w3.org/2000/svg">
<path d="M13.6146 6.99998H10.9212C10.6363 6.99998 10.4077 6.97008 10.2247 6.91945C10.4404 6.97867 10.6802 6.99331 10.9212 6.99331H13.6146C14.0629 6.99331 14.5032 6.94083 14.7954 6.65046C14.845 6.60115 14.8865 6.54862 14.9214 6.4941C14.8767 6.56836 14.8256 6.62964 14.77 6.68057C14.5694 6.86445 14.2179 6.99998 13.6146 6.99998ZM9.74155 6.65406C9.86181 6.77282 10.0071 6.85126 10.1674 6.90246C9.98993 6.84617 9.85906 6.7692 9.76322 6.68136C9.70154 6.62484 9.64539 6.55549 9.59764 6.46963C9.63592 6.53427 9.68319 6.59641 9.74155 6.65406ZM9.74045 1.67617C9.73354 1.68303 9.72679 1.68996 9.72019 1.69694C9.73484 1.68126 9.74988 1.66641 9.76526 1.65235C9.76683 1.65092 9.76841 1.64948 9.77 1.64805C9.75999 1.65717 9.75014 1.66654 9.74045 1.67617ZM14.7943 1.67257C14.791 1.66934 14.7877 1.66614 14.7844 1.66296C14.7904 1.66873 14.7964 1.67463 14.8023 1.68066C14.7997 1.67795 14.797 1.67526 14.7943 1.67257Z" fill="white" stroke="white"/>
<mask id="path-2-inside-1_1068_51550" fill="white">
<path d="M13.6146 15.1667H10.9212C9.58124 15.1667 8.93457 14.5133 8.93457 13.18V10.4867C8.93457 9.14667 9.5879 8.5 10.9212 8.5H13.6146C14.9546 8.5 15.6012 9.15333 15.6012 10.4867V13.18C15.6012 14.5133 14.9479 15.1667 13.6146 15.1667ZM10.9212 9.5C10.1346 9.5 9.93457 9.7 9.93457 10.4867V13.18C9.93457 13.9667 10.1346 14.1667 10.9212 14.1667H13.6146C14.4012 14.1667 14.6012 13.9667 14.6012 13.18V10.4867C14.6012 9.7 14.4012 9.5 13.6146 9.5H10.9212Z"/>
</mask>
<path d="M13.6146 15.1667H10.9212C9.58124 15.1667 8.93457 14.5133 8.93457 13.18V10.4867C8.93457 9.14667 9.5879 8.5 10.9212 8.5H13.6146C14.9546 8.5 15.6012 9.15333 15.6012 10.4867V13.18C15.6012 14.5133 14.9479 15.1667 13.6146 15.1667ZM10.9212 9.5C10.1346 9.5 9.93457 9.7 9.93457 10.4867V13.18C9.93457 13.9667 10.1346 14.1667 10.9212 14.1667H13.6146C14.4012 14.1667 14.6012 13.9667 14.6012 13.18V10.4867C14.6012 9.7 14.4012 9.5 13.6146 9.5H10.9212Z" fill="white"/>
<path d="M13.6146 14.1667H10.9212V16.1667H13.6146V14.1667ZM10.9212 14.1667C10.399 14.1667 10.2055 14.0394 10.1334 13.9671C10.0608 13.8944 9.93457 13.7002 9.93457 13.18H7.93457C7.93457 13.9931 8.13164 14.7923 8.7174 15.3795C9.30364 15.9673 10.1035 16.1667 10.9212 16.1667V14.1667ZM9.93457 13.18V10.4867H7.93457V13.18H9.93457ZM9.93457 10.4867C9.93457 9.96442 10.0618 9.77093 10.1341 9.69883C10.2069 9.62626 10.401 9.5 10.9212 9.5V7.5C10.1081 7.5 9.30894 7.69707 8.72169 8.28283C8.13397 8.86907 7.93457 9.66891 7.93457 10.4867H9.93457ZM10.9212 9.5H13.6146V7.5H10.9212V9.5ZM13.6146 9.5C14.1368 9.5 14.3303 9.62726 14.4024 9.69955C14.475 9.7723 14.6012 9.96648 14.6012 10.4867H16.6012C16.6012 9.67352 16.4042 8.87437 15.8184 8.28712C15.2322 7.6994 14.4323 7.5 13.6146 7.5V9.5ZM14.6012 10.4867V13.18H16.6012V10.4867H14.6012ZM14.6012 13.18C14.6012 13.6976 14.4746 13.8924 14.4008 13.9662C14.327 14.04 14.1322 14.1667 13.6146 14.1667V16.1667C14.4303 16.1667 15.2288 15.9667 15.815 15.3804C16.4012 14.7942 16.6012 13.9957 16.6012 13.18H14.6012ZM10.9212 8.5C10.5316 8.5 9.89106 8.52596 9.4258 8.99123C8.96054 9.45649 8.93457 10.097 8.93457 10.4867H10.9346C10.9346 10.448 10.9352 10.4136 10.9363 10.383C10.9375 10.3524 10.9391 10.3266 10.941 10.3048C10.9428 10.2831 10.9449 10.2665 10.9468 10.2544C10.9486 10.2423 10.9501 10.2358 10.9505 10.2339C10.9515 10.2296 10.9473 10.2494 10.9303 10.2828C10.9217 10.2998 10.91 10.3198 10.8945 10.3413C10.879 10.363 10.8608 10.3846 10.84 10.4054C10.8192 10.4262 10.7975 10.4444 10.7759 10.46C10.7543 10.4754 10.7344 10.4871 10.7174 10.4957C10.684 10.5128 10.6642 10.517 10.6685 10.5159C10.6704 10.5155 10.6769 10.514 10.689 10.5122C10.7011 10.5103 10.7176 10.5083 10.7394 10.5064C10.7611 10.5045 10.787 10.5029 10.8176 10.5018C10.8481 10.5006 10.8825 10.5 10.9212 10.5V8.5ZM8.93457 10.4867V13.18H10.9346V10.4867H8.93457ZM8.93457 13.18C8.93457 13.5696 8.96054 14.2102 9.4258 14.6754C9.89106 15.1407 10.5316 15.1667 10.9212 15.1667V13.1667C10.8825 13.1667 10.8481 13.166 10.8176 13.1649C10.787 13.1638 10.7611 13.1622 10.7394 13.1603C10.7176 13.1584 10.7011 13.1563 10.689 13.1545C10.6769 13.1526 10.6704 13.1512 10.6685 13.1507C10.6642 13.1497 10.684 13.1539 10.7174 13.1709C10.7344 13.1796 10.7543 13.1913 10.7759 13.2067C10.7975 13.2222 10.8192 13.2404 10.84 13.2612C10.8608 13.282 10.879 13.3037 10.8945 13.3254C10.91 13.3469 10.9217 13.3669 10.9303 13.3838C10.9473 13.4172 10.9515 13.437 10.9505 13.4327C10.9501 13.4309 10.9486 13.4244 10.9468 13.4122C10.9449 13.4001 10.9428 13.3836 10.941 13.3618C10.9391 13.3401 10.9375 13.3143 10.9363 13.2837C10.9352 13.2531 10.9346 13.2187 10.9346 13.18H8.93457ZM10.9212 15.1667H13.6146V13.1667H10.9212V15.1667ZM13.6146 15.1667C14.0042 15.1667 14.6447 15.1407 15.11 14.6754C15.5753 14.2102 15.6012 13.5696 15.6012 13.18H13.6012C13.6012 13.2187 13.6006 13.2531 13.5995 13.2837C13.5984 13.3143 13.5967 13.3401 13.5948 13.3618C13.593 13.3836 13.5909 13.4001 13.5891 13.4122C13.5872 13.4244 13.5857 13.4309 13.5853 13.4327C13.5843 13.437 13.5885 13.4172 13.6055 13.3838C13.6142 13.3669 13.6258 13.3469 13.6413 13.3254C13.6568 13.3037 13.675 13.282 13.6958 13.2612C13.7166 13.2404 13.7383 13.2222 13.7599 13.2067C13.7815 13.1913 13.8014 13.1796 13.8184 13.1709C13.8518 13.1539 13.8716 13.1497 13.8673 13.1507C13.8654 13.1512 13.8589 13.1526 13.8468 13.1545C13.8347 13.1563 13.8182 13.1584 13.7964 13.1603C13.7747 13.1622 13.7488 13.1638 13.7182 13.1649C13.6877 13.166 13.6533 13.1667 13.6146 13.1667V15.1667ZM15.6012 13.18V10.4867H13.6012V13.18H15.6012ZM15.6012 10.4867C15.6012 10.097 15.5753 9.45649 15.11 8.99123C14.6447 8.52596 14.0042 8.5 13.6146 8.5V10.5C13.6533 10.5 13.6877 10.5006 13.7182 10.5018C13.7488 10.5029 13.7747 10.5045 13.7964 10.5064C13.8182 10.5083 13.8347 10.5103 13.8468 10.5122C13.8589 10.514 13.8654 10.5155 13.8673 10.5159C13.8716 10.517 13.8518 10.5128 13.8184 10.4957C13.8014 10.4871 13.7815 10.4754 13.7599 10.46C13.7383 10.4444 13.7166 10.4262 13.6958 10.4054C13.675 10.3846 13.6568 10.363 13.6413 10.3413C13.6258 10.3198 13.6142 10.2998 13.6055 10.2828C13.5885 10.2494 13.5843 10.2296 13.5853 10.2339C13.5857 10.2358 13.5872 10.2423 13.5891 10.2544C13.5909 10.2665 13.593 10.2831 13.5948 10.3048C13.5967 10.3266 13.5984 10.3524 13.5995 10.383C13.6006 10.4136 13.6012 10.448 13.6012 10.4867H15.6012ZM13.6146 8.5H10.9212V10.5H13.6146V8.5Z" fill="white" mask="url(#path-2-inside-1_1068_51550)"/>
<path d="M5.94782 6.99998H3.25449C2.96954 6.99998 2.74096 6.97008 2.55798 6.91946C2.77365 6.97867 3.01341 6.99331 3.25449 6.99331H5.94782C6.39612 6.99331 6.83643 6.94083 7.12861 6.65046C7.17822 6.60115 7.21979 6.54863 7.25462 6.49411C7.20999 6.56837 7.15885 6.62964 7.10329 6.68057C6.90269 6.86445 6.55117 6.99998 5.94782 6.99998ZM2.0748 6.65406C2.19506 6.77282 2.34032 6.85126 2.50064 6.90245C2.32318 6.84617 2.19231 6.7692 2.09648 6.68136C2.03479 6.62484 1.97864 6.55549 1.93089 6.46963C1.96917 6.53427 2.01644 6.59641 2.0748 6.65406ZM2.0737 1.67617C2.06679 1.68303 2.06005 1.68995 2.05345 1.69694C2.0681 1.68125 2.08313 1.66641 2.09851 1.65235C2.10008 1.65092 2.10166 1.64949 2.10325 1.64806C2.09324 1.65717 2.08339 1.66654 2.0737 1.67617ZM7.12751 1.67257C7.12426 1.66937 7.121 1.66619 7.11772 1.66305C7.12373 1.66879 7.12969 1.67466 7.13559 1.68066C7.13292 1.67795 7.13023 1.67526 7.12751 1.67257Z" fill="white" stroke="white"/>
<path d="M5.94782 15.1667H3.25449C1.91449 15.1667 1.26782 14.5133 1.26782 13.18V10.4867C1.26782 9.14667 1.92116 8.5 3.25449 8.5H5.94782C7.28782 8.5 7.93449 9.15333 7.93449 10.4867V13.18C7.93449 14.5133 7.28116 15.1667 5.94782 15.1667ZM3.25449 9.5C2.46782 9.5 2.26782 9.7 2.26782 10.4867V13.18C2.26782 13.9667 2.46782 14.1667 3.25449 14.1667H5.94782C6.73449 14.1667 6.93449 13.9667 6.93449 13.18V10.4867C6.93449 9.7 6.73449 9.5 5.94782 9.5H3.25449Z" fill="white"/>
</svg>
