<svg width="16.000000" height="16.000000" viewBox="0 0 16 16" fill="none" xmlns="http://www.w3.org/2000/svg" xmlns:xlink="http://www.w3.org/1999/xlink">
	<desc>
			Created with Pixso.
	</desc>
	<defs/>
	<path id="Vector" d="M14.16 6.09C12.62 3.67 10.37 2.28 8 2.28C6.81 2.28 5.66 2.63 4.6 3.27C3.55 3.93 2.6 4.88 1.83 6.09C1.16 7.14 1.16 8.84 1.83 9.89C3.37 12.31 5.62 13.7 8 13.7C9.18 13.7 10.34 13.36 11.39 12.71C12.44 12.05 13.39 11.1 14.16 9.89C14.83 8.85 14.83 7.14 14.16 6.09ZM8 10.69C6.5 10.69 5.3 9.48 5.3 8C5.3 6.51 6.5 5.3 8 5.3C9.49 5.3 10.69 6.51 10.69 8C10.69 9.48 9.49 10.69 8 10.69Z" fill="#94959B" fill-opacity="1.000000" fill-rule="nonzero"/>
	<path id="Vector" d="M8 6.09C6.95 6.09 6.1 6.94 6.1 7.99C6.1 9.04 6.95 9.89 8 9.89C9.04 9.89 9.9 9.04 9.9 7.99C9.9 6.95 9.04 6.09 8 6.09Z" fill="#94959B" fill-opacity="1.000000" fill-rule="nonzero"/>
	<g opacity="0.000000"/>
</svg>
