<svg width="15" height="14" viewBox="0 0 15 14" fill="none" xmlns="http://www.w3.org/2000/svg">
<path d="M7.36775 13.3845C3.89083 13.3845 1.06006 10.5538 1.06006 7.07685C1.06006 3.59993 3.89083 0.769165 7.36775 0.769165C10.8447 0.769165 13.6754 3.59993 13.6754 7.07685C13.6754 10.5538 10.8447 13.3845 7.36775 13.3845ZM7.36775 1.69224C4.39544 1.69224 1.98313 4.1107 1.98313 7.07685C1.98313 10.043 4.39544 12.4615 7.36775 12.4615C10.3401 12.4615 12.7524 10.043 12.7524 7.07685C12.7524 4.1107 10.3401 1.69224 7.36775 1.69224Z" fill="#89909D"/>
<path d="M13.8285 14.0001C13.7115 14.0001 13.5946 13.957 13.5023 13.8647L12.2715 12.6339C12.0931 12.4555 12.0931 12.1601 12.2715 11.9816C12.45 11.8032 12.7454 11.8032 12.9238 11.9816L14.1546 13.2124C14.3331 13.3909 14.3331 13.6862 14.1546 13.8647C14.0623 13.957 13.9454 14.0001 13.8285 14.0001Z" fill="#89909D"/>
</svg>
